<?xml version="1.0" encoding="UTF-8" standalone="no"?>
<svg
   xmlns:dc="http://purl.org/dc/elements/1.1/"
   xmlns:cc="http://creativecommons.org/ns#"
   xmlns:rdf="http://www.w3.org/1999/02/22-rdf-syntax-ns#"
   xmlns:svg="http://www.w3.org/2000/svg"
   xmlns="http://www.w3.org/2000/svg"
   id="svg7000"
   version="1.1"
   viewBox="0 0 105.83333 105.83334"
   height="400"
   width="400">
  <defs
     id="defs6994">
    <clipPath
       id="clipPath6366"
       clipPathUnits="userSpaceOnUse">
      <path
         id="path6364"
         d="M 0,800 H 800 V 0 H 0 Z" />
    </clipPath>
    <clipPath
       id="clipPath6344"
       clipPathUnits="userSpaceOnUse">
      <path
         id="path6342"
         d="m 628.752,335.17 h 25.953 V 206.897 h -25.953 z" />
    </clipPath>
    <clipPath
       id="clipPath6328"
       clipPathUnits="userSpaceOnUse">
      <path
         id="path6326"
         d="M 628.752,311.379 H 734.84 V 112.985 H 628.752 Z" />
    </clipPath>
    <clipPath
       id="clipPath6312"
       clipPathUnits="userSpaceOnUse">
      <path
         id="path6310"
         d="M 625.591,330.89 H 731.825 V 176.261 H 625.591 Z" />
    </clipPath>
    <clipPath
       id="clipPath6284"
       clipPathUnits="userSpaceOnUse">
      <path
         id="path6282"
         d="M 621.104,130.563 H 728.989 V 108.844 H 621.104 Z" />
    </clipPath>
    <clipPath
       id="clipPath6242"
       clipPathUnits="userSpaceOnUse">
      <path
         id="path6240"
         d="M 86.5897,635.849 H 177.633 V 436.79 H 86.5897 Z" />
    </clipPath>
    <clipPath
       id="clipPath6226"
       clipPathUnits="userSpaceOnUse">
      <path
         id="path6224"
         d="M 83.2275,635.849 H 127.775 V 458.683 H 83.2275 Z" />
    </clipPath>
    <clipPath
       id="clipPath6210"
       clipPathUnits="userSpaceOnUse">
      <path
         id="path6208"
         d="M 92.0805,632.839 H 179.069 V 451.205 H 92.0805 Z" />
    </clipPath>
    <clipPath
       id="clipPath6182"
       clipPathUnits="userSpaceOnUse">
      <path
         id="path6180"
         d="M 73.8326,450.697 H 181.718 V 428.978 H 73.8326 Z" />
    </clipPath>
    <clipPath
       id="clipPath5596"
       clipPathUnits="userSpaceOnUse">
      <path
         id="path5594"
         d="m 268.434,659.32 h 29.644 V 475.969 h -29.644 z" />
    </clipPath>
    <clipPath
       id="clipPath5580"
       clipPathUnits="userSpaceOnUse">
      <path
         id="path5578"
         d="m 268.758,654.347 h 95.383 v -221.47 h -95.383 z" />
    </clipPath>
    <clipPath
       id="clipPath5564"
       clipPathUnits="userSpaceOnUse">
      <path
         id="path5562"
         d="m 274.02,653.059 h 87.106 V 453.697 H 274.02 Z" />
    </clipPath>
    <clipPath
       id="clipPath5536"
       clipPathUnits="userSpaceOnUse">
      <path
         id="path5534"
         d="M 256.256,450.697 H 364.141 V 428.978 H 256.256 Z" />
    </clipPath>
  </defs>
  <metadata
     id="metadata6997">
    <rdf:RDF>
      <cc:Work
         rdf:about="">
        <dc:format>image/svg+xml</dc:format>
        <dc:type
           rdf:resource="http://purl.org/dc/dcmitype/StillImage" />
        <dc:title></dc:title>
      </cc:Work>
    </rdf:RDF>
  </metadata>
  <g
     transform="translate(0,-191.16665)"
     id="layer1">
    <g
       transform="translate(-26.233838,13.790404)"
       id="g11992">
      <g
         id="g5522"
         transform="matrix(0.35277777,0,0,-0.35277777,82.923237,189.19032)">
        <path
           d="m 0,0 c -3.365,0.821 -6.129,-0.55 -8.385,-2.645 -3.058,1.989 -6.535,3.379 -10.12,2.617 -4.305,-0.915 -6.792,-3.472 -9.406,-6.322 -4.582,3.819 -7.401,8.597 -14.695,9.179 -6.812,0.544 -16.8,-0.774 -20.372,-7.777 -3.243,-6.359 -2.697,-13.853 0.968,-20.056 3.133,-5.3 6.448,-6.787 10.84,-7.463 -2.721,-14.742 18.292,-28.21 27.745,-8.677 0.948,1.96 1.386,4.143 1.806,6.257 0.175,1.098 0.158,2.196 -0.049,3.294 -0.001,0.395 -0.012,0.729 -0.031,1.022 4.398,1.669 8.861,2.214 12.285,6.102 1.754,1.991 2.29,2.797 3.263,5.312 0.771,1.993 1.66,0.735 4.119,1.435 4.292,1.221 7.267,2.665 8.871,6.782 0.483,1.024 0.817,2.171 0.923,3.494 C 8.095,-3.263 3.262,-0.796 0,0"
           style="fill:#fffaf2;fill-opacity:1;fill-rule:nonzero;stroke:none"
           id="path5524" />
      </g>
      <g
         id="g5526"
         transform="matrix(0.35277777,0,0,-0.35277777,79.733069,207.35996)">
        <path
           d="m 0,0 c 3.343,0.905 5.102,3.441 6.067,6.364 3.638,-0.265 7.354,0.196 10.125,2.594 3.329,2.88 4.273,6.319 5.186,10.077 5.856,-1.132 10.632,-3.956 17.3,-0.945 6.229,2.813 14.339,8.788 14.086,16.646 -0.229,7.135 -4.325,13.434 -10.529,17.096 -5.302,3.13 -8.923,2.831 -13.096,1.304 C 24.405,67.36 -0.499,69.01 0.653,47.341 c 0.115,-2.174 0.785,-4.298 1.438,-6.352 0.377,-1.046 0.922,-2 1.633,-2.861 0.192,-0.346 0.363,-0.632 0.52,-0.88 C 1.199,33.663 -2.446,31.032 -3.568,25.974 -4.143,23.383 -4.223,22.419 -3.861,19.746 -3.574,17.628 -4.96,18.301 -6.776,16.502 -9.945,13.36 -11.854,10.659 -11.271,6.279 -11.199,5.15 -10.938,3.984 -10.392,2.774 -8.665,-1.05 -3.241,-0.877 0,0"
           style="fill:#fffaf2;fill-opacity:1;fill-rule:nonzero;stroke:none"
           id="path5528" />
      </g>
      <g
         transform="matrix(0.35277777,0,0,-0.35277777,-30.181513,427.04738)"
         id="g5530">
        <g
           id="g5532" />
        <g
           id="g5544">
          <g
             clip-path="url(#clipPath5536)"
             id="g5542"
             style="opacity:0.05000311">
            <g
               transform="translate(364.1414,439.8379)"
               id="g5540">
              <path
                 d="m 0,0 c 0,-5.998 -24.151,-10.859 -53.943,-10.859 -29.791,0 -53.942,4.861 -53.942,10.859 0,5.997 24.151,10.859 53.942,10.859 C -24.151,10.859 0,5.997 0,0"
                 style="fill:#333333;fill-opacity:1;fill-rule:nonzero;stroke:none"
                 id="path5538" />
            </g>
          </g>
        </g>
      </g>
      <g
         id="g5546"
         transform="matrix(0.35277777,0,0,-0.35277777,98.221516,196.50432)">
        <path
           d="m 0,0 c -24.883,8.829 -82.674,8.829 -107.556,0 0,0 -1.606,-48.561 5.217,-67.423 6.822,-18.863 14.849,-61.805 12.842,-97.122 -2.006,-35.317 -14.447,-46.956 5.218,-52.173 19.665,-5.217 41.337,-5.217 61.002,0 19.665,5.217 7.224,16.856 5.217,52.173 -2.007,35.317 6.02,78.259 12.843,97.122 C 1.605,-48.561 0,0 0,0"
           style="fill:#f0f9ff;fill-opacity:1;fill-rule:nonzero;stroke:none"
           id="path5548" />
      </g>
      <g
         id="g5550"
         transform="matrix(0.35277777,0,0,-0.35277777,67.70931,254.6124)">
        <path
           d="m 0,0 c -0.605,-10.648 -2.119,-19.061 -3.466,-25.955 0,0 1.927,-9.14 36.179,-9.14 34.252,0 36.179,9.14 36.179,9.14 -1.347,6.894 -2.861,15.307 -3.466,25.955 -2.088,36.745 6.533,80.389 13.017,98.316 5.761,15.926 5.298,54.778 5.093,64.214 -11.603,3.645 -30.348,5.797 -50.823,5.797 -20.476,0 -39.22,-2.152 -50.823,-5.797 -0.206,-9.435 -0.67,-48.282 5.093,-64.214 C -6.533,80.39 2.088,36.746 0,0"
           style="fill:#e07227;fill-opacity:1;fill-rule:nonzero;stroke:none"
           id="path5552" />
      </g>
      <g
         id="g5554"
         transform="matrix(0.35277777,0,0,-0.35277777,96.972011,209.59312)">
        <path
           d="m 0,0 c 0.902,14.735 0.703,29.562 0.587,34.916 -11.603,3.645 -30.348,5.798 -50.823,5.798 -20.476,0 -39.221,-2.153 -50.823,-5.798 -0.117,-5.354 -0.316,-20.181 0.586,-34.916 0,0 7.939,5.418 50.237,5.418 C -7.938,5.418 0,0 0,0"
           style="fill:#fff6e6;fill-opacity:1;fill-rule:nonzero;stroke:none"
           id="path5556" />
      </g>
      <g
         transform="matrix(0.35277777,0,0,-0.35277777,-30.181513,427.04738)"
         id="g5558">
        <g
           id="g5560" />
        <g
           id="g5572">
          <g
             clip-path="url(#clipPath5564)"
             id="g5570"
             style="opacity:0.30000299">
            <g
               transform="translate(361.022,651.3218)"
               id="g5568">
              <path
                 d="m 0,0 c -1.988,0.624 -4.19,1.204 -6.57,1.738 1.216,-16.624 -1.286,-33.812 -4.834,-49.797 -2.536,-11.425 -5.775,-22.697 -8.054,-34.179 -2.419,-12.185 -5.848,-24.222 -7.943,-36.474 -1.289,-13.769 -0.153,-27.607 -0.119,-41.419 0.044,-17.211 -14.394,-31.573 -31.572,-31.573 -10.729,0 -20.31,5.561 -26.031,13.907 -0.59,-3.938 -1.252,-7.48 -1.879,-10.688 0,0 1.927,-9.139 36.179,-9.139 34.252,0 36.179,9.139 36.179,9.139 -1.347,6.894 -2.861,15.307 -3.466,25.955 -2.088,36.745 6.533,80.389 13.017,98.316 C 0.668,-48.288 0.205,-9.436 0,0"
                 style="fill:#e07227;fill-opacity:1;fill-rule:nonzero;stroke:none"
                 id="path5566" />
            </g>
          </g>
        </g>
      </g>
      <g
         transform="matrix(0.35277777,0,0,-0.35277777,-30.181513,427.04738)"
         id="g5574">
        <g
           id="g5576" />
        <g
           id="g5588">
          <g
             clip-path="url(#clipPath5580)"
             id="g5586">
            <g
               transform="translate(363.977,653.5079)"
               id="g5584">
              <path
                 d="m 0,0 c -0.816,0.289 -1.668,0.569 -2.552,0.839 -1.422,-18.653 -4.997,-37.238 -9.487,-55.305 -4.399,-17.703 -10.223,-35.316 -13.346,-53.331 -1.235,-13.226 -0.842,-26.521 0.611,-39.723 0.455,-2.906 0.946,-5.807 1.479,-8.701 2.063,-7.676 2.063,-15.352 0,-23.027 -1.455,-3.449 -2.91,-6.898 -4.366,-10.346 -5.671,-9.682 -15.057,-16.926 -25.883,-19.904 -11.179,-3.075 -23.37,-1.493 -33.373,4.366 -2.642,1.548 -5.281,3.51 -7.742,5.775 -1.542,-9.66 -0.455,-14.486 10.38,-17.361 19.665,-5.217 41.337,-5.217 61.002,0 19.665,5.217 7.224,16.856 5.217,52.173 -2.007,35.317 6.02,78.259 12.843,97.122 C 1.605,-48.561 0,0 0,0"
                 style="fill:#f2f2f2;fill-opacity:1;fill-rule:nonzero;stroke:none"
                 id="path5582" />
            </g>
          </g>
        </g>
      </g>
      <g
         transform="matrix(0.35277777,0,0,-0.35277777,-30.181513,427.04738)"
         id="g5590">
        <g
           id="g5592" />
        <g
           id="g5604">
          <g
             clip-path="url(#clipPath5596)"
             id="g5602"
             style="opacity:0.19999701">
            <g
               transform="translate(279.3744,568.0728)"
               id="g5600">
              <path
                 d="m 0,0 c 5.115,-17.037 7.922,-34.871 9.135,-52.599 0.656,-9.578 0.354,-21.973 0.354,-28.718 0,-6.745 8.008,-10.754 8.886,-10.787 0.044,1.292 0.083,13.107 0.113,14.4 0.289,12.281 0.308,24.572 -0.071,36.851 -0.318,10.256 -0.629,20.651 -1.69,30.893 C 15.022,-0.482 11.993,8.664 9.667,18.006 6.459,30.891 4.882,43.943 5.93,57.177 6.832,68.564 8.092,79.915 9.513,91.247 2.169,90.671 -4.774,89.788 -10.887,88.596 V 65.367 c 0,-9.685 -0.308,-19.411 0.554,-29.063 C -8.076,23.845 -3.644,12.139 0,0"
                 style="fill:#f0f9ff;fill-opacity:1;fill-rule:nonzero;stroke:none"
                 id="path5598" />
            </g>
          </g>
        </g>
      </g>
    </g>
  </g>
</svg>
