<?xml version="1.0" encoding="UTF-8" standalone="no"?>
<svg
   xmlns:dc="http://purl.org/dc/elements/1.1/"
   xmlns:cc="http://creativecommons.org/ns#"
   xmlns:rdf="http://www.w3.org/1999/02/22-rdf-syntax-ns#"
   xmlns:svg="http://www.w3.org/2000/svg"
   xmlns="http://www.w3.org/2000/svg"
   id="svg7000"
   version="1.1"
   viewBox="0 0 105.83333 105.83334"
   height="400"
   width="400">
  <defs
     id="defs6994">
    <clipPath
       id="clipPath6366"
       clipPathUnits="userSpaceOnUse">
      <path
         id="path6364"
         d="M 0,800 H 800 V 0 H 0 Z" />
    </clipPath>
    <clipPath
       id="clipPath6344"
       clipPathUnits="userSpaceOnUse">
      <path
         id="path6342"
         d="m 628.752,335.17 h 25.953 V 206.897 h -25.953 z" />
    </clipPath>
    <clipPath
       id="clipPath6328"
       clipPathUnits="userSpaceOnUse">
      <path
         id="path6326"
         d="M 628.752,311.379 H 734.84 V 112.985 H 628.752 Z" />
    </clipPath>
    <clipPath
       id="clipPath6312"
       clipPathUnits="userSpaceOnUse">
      <path
         id="path6310"
         d="M 625.591,330.89 H 731.825 V 176.261 H 625.591 Z" />
    </clipPath>
    <clipPath
       id="clipPath6284"
       clipPathUnits="userSpaceOnUse">
      <path
         id="path6282"
         d="M 621.104,130.563 H 728.989 V 108.844 H 621.104 Z" />
    </clipPath>
    <clipPath
       id="clipPath6242"
       clipPathUnits="userSpaceOnUse">
      <path
         id="path6240"
         d="M 86.5897,635.849 H 177.633 V 436.79 H 86.5897 Z" />
    </clipPath>
    <clipPath
       id="clipPath6226"
       clipPathUnits="userSpaceOnUse">
      <path
         id="path6224"
         d="M 83.2275,635.849 H 127.775 V 458.683 H 83.2275 Z" />
    </clipPath>
    <clipPath
       id="clipPath6210"
       clipPathUnits="userSpaceOnUse">
      <path
         id="path6208"
         d="M 92.0805,632.839 H 179.069 V 451.205 H 92.0805 Z" />
    </clipPath>
    <clipPath
       id="clipPath6182"
       clipPathUnits="userSpaceOnUse">
      <path
         id="path6180"
         d="M 73.8326,450.697 H 181.718 V 428.978 H 73.8326 Z" />
    </clipPath>
    <clipPath
       id="clipPath5596"
       clipPathUnits="userSpaceOnUse">
      <path
         id="path5594"
         d="m 268.434,659.32 h 29.644 V 475.969 h -29.644 z" />
    </clipPath>
    <clipPath
       id="clipPath5580"
       clipPathUnits="userSpaceOnUse">
      <path
         id="path5578"
         d="m 268.758,654.347 h 95.383 v -221.47 h -95.383 z" />
    </clipPath>
    <clipPath
       id="clipPath5564"
       clipPathUnits="userSpaceOnUse">
      <path
         id="path5562"
         d="m 274.02,653.059 h 87.106 V 453.697 H 274.02 Z" />
    </clipPath>
    <clipPath
       id="clipPath5536"
       clipPathUnits="userSpaceOnUse">
      <path
         id="path5534"
         d="M 256.256,450.697 H 364.141 V 428.978 H 256.256 Z" />
    </clipPath>
    <clipPath
       id="clipPath6088"
       clipPathUnits="userSpaceOnUse">
      <path
         id="path6086"
         d="M 438.68,450.697 H 546.565 V 428.978 H 438.68 Z" />
    </clipPath>
    <clipPath
       id="clipPath6116"
       clipPathUnits="userSpaceOnUse">
      <path
         id="path6114"
         d="M 443.167,651.532 H 549.401 V 496.903 H 443.167 Z" />
    </clipPath>
    <clipPath
       id="clipPath6132"
       clipPathUnits="userSpaceOnUse">
      <path
         id="path6130"
         d="M 446.329,632.021 H 552.416 V 433.627 H 446.329 Z" />
    </clipPath>
    <clipPath
       id="clipPath6148"
       clipPathUnits="userSpaceOnUse">
      <path
         id="path6146"
         d="m 446.329,655.812 h 25.953 V 527.539 h -25.953 z" />
    </clipPath>
    <clipPath
       id="clipPath5718"
       clipPathUnits="userSpaceOnUse">
      <path
         id="path5716"
         d="M 0,800 H 800 V 0 H 0 Z" />
    </clipPath>
    <clipPath
       id="clipPath5730"
       clipPathUnits="userSpaceOnUse">
      <path
         id="path5728"
         d="M 596.212,462.77 H 753.88 V 428.978 H 596.212 Z" />
    </clipPath>
    <clipPath
       id="clipPath5750"
       clipPathUnits="userSpaceOnUse">
      <path
         id="path5748"
         d="m 728.595,607.344 h 8.856 v -17.091 h -8.856 z" />
    </clipPath>
    <clipPath
       id="clipPath5766"
       clipPathUnits="userSpaceOnUse">
      <path
         id="path5764"
         d="M 728.735,503.471 H 744.63 V 482.205 H 728.735 Z" />
    </clipPath>
    <clipPath
       id="clipPath5794"
       clipPathUnits="userSpaceOnUse">
      <path
         id="path5792"
         d="M 613.181,624.211 H 728.505 V 456.19 H 613.181 Z" />
    </clipPath>
    <clipPath
       id="clipPath5810"
       clipPathUnits="userSpaceOnUse">
      <path
         id="path5808"
         d="M 605.902,630.632 H 735.784 V 435.929 H 605.902 Z" />
    </clipPath>
    <clipPath
       id="clipPath5826"
       clipPathUnits="userSpaceOnUse">
      <path
         id="path5824"
         d="m 627.257,630.632 h 24.681 V 477.231 h -24.681 z" />
    </clipPath>
  </defs>
  <metadata
     id="metadata6997">
    <rdf:RDF>
      <cc:Work
         rdf:about="">
        <dc:format>image/svg+xml</dc:format>
        <dc:type
           rdf:resource="http://purl.org/dc/dcmitype/StillImage" />
        <dc:title></dc:title>
      </cc:Work>
    </rdf:RDF>
  </metadata>
  <g
     transform="translate(0,-191.16665)"
     id="layer1">
    <g
       id="g12099"
       transform="matrix(0.35277777,0,0,-0.35277777,-187.04332,437.65578)">
      <g
         id="g5712">
        <g
           id="g5714"
           clip-path="url(#clipPath5718)">
          <g
             id="g5720"
             transform="translate(712.1301,654.9009)">
            <path
               d="m 0,0 c -5.599,1.074 -10.36,0.081 -14.148,-2.189 -1.016,2.321 -3.033,4.238 -6.247,5.042 -6.063,1.516 -10.263,-2.444 -11.42,-7.15 -19.077,-3.537 -23.952,-35.278 -1.062,-41.003 6.413,-1.604 11.858,-0.376 16.047,2.481 0.935,-2.839 3.2,-5.216 7.041,-5.953 6.138,-1.177 10.112,3.01 11.005,7.773 C 20.067,-36.408 23.173,-4.445 0,0"
               style="fill:#fffaf2;fill-opacity:1;fill-rule:nonzero;stroke:none"
               id="path5722" />
          </g>
          <g
             id="g5724">
            <g
               id="g5726" />
            <g
               id="g5738">
              <g
                 clip-path="url(#clipPath5730)"
                 id="g5736"
                 style="opacity:0.05000311">
                <g
                   transform="translate(753.8802,445.8743)"
                   id="g5734">
                  <path
                     d="m 0,0 c 0,-9.331 -35.295,-16.896 -78.834,-16.896 -43.539,0 -78.834,7.565 -78.834,16.896 0,9.331 35.295,16.896 78.834,16.896 C -35.295,16.896 0,9.331 0,0"
                     style="fill:#333333;fill-opacity:1;fill-rule:nonzero;stroke:none"
                     id="path5732" />
                </g>
              </g>
            </g>
          </g>
          <g
             id="g5740"
             transform="translate(748.2612,602.2808)">
            <path
               d="m 0,0 c -6.146,2.837 -13.102,4.332 -19.666,5.063 v -16.564 c 6.14,-0.074 11.628,-0.756 12.784,-2.836 2.867,-5.162 12.33,-72.547 3.728,-79.142 -4.729,-3.625 -9.808,-7.42 -16.372,-9.678 0,0 0.676,-17.132 1.355,-16.917 10.897,3.441 33.942,9.964 33.942,30.896 C 15.771,-68.246 18.638,-8.602 0,0"
               style="fill:#f0f9ff;fill-opacity:1;fill-rule:nonzero;stroke:none"
               id="path5742" />
          </g>
          <g
             id="g5744">
            <g
               id="g5746" />
            <g
               id="g5758">
              <g
                 clip-path="url(#clipPath5750)"
                 id="g5756">
                <g
                   transform="translate(735.7794,594.7341)"
                   id="g5754">
                  <path
                     d="m 0,0 c 0,3.853 0.59,7.588 1.672,11.124 -2.96,0.675 -5.946,1.162 -8.856,1.486 V -3.954 C -4.462,-3.987 -1.87,-4.14 0.275,-4.481 0.1,-3.008 0,-1.514 0,0"
                     style="fill:#f0f9ff;fill-opacity:1;fill-rule:nonzero;stroke:none"
                     id="path5752" />
                </g>
              </g>
            </g>
          </g>
          <g
             id="g5760">
            <g
               id="g5762" />
            <g
               id="g5774">
              <g
                 clip-path="url(#clipPath5766)"
                 id="g5772">
                <g
                   transform="translate(737.6425,503.4711)"
                   id="g5770">
                  <path
                     d="m 0,0 c -2.69,-1.692 -5.612,-3.214 -8.908,-4.347 0,0 0.677,-17.132 1.356,-16.918 3.848,1.216 9.211,2.82 14.539,5.302 C 3.536,-11.298 1.097,-5.863 0,0"
                     style="fill:#f0f9ff;fill-opacity:1;fill-rule:nonzero;stroke:none"
                     id="path5768" />
                </g>
              </g>
            </g>
          </g>
          <g
             id="g5776"
             transform="translate(728.6345,514.2465)">
            <path
               d="m 0,0 v 109.486 c 0,0 2.707,0.23 2.707,3.446 0,3.216 -2.756,3.454 -4.594,3.454 h -55.905 -55.904 c -1.838,0 -4.594,-0.238 -4.594,-3.454 0,-3.216 2.707,-3.446 2.707,-3.446 V 0 c 0,-62.607 -11.638,-52.574 -5.217,-66.219 6.421,-13.646 63.008,-12.04 63.008,-12.04 0,0 56.588,-1.606 63.009,12.04 C 11.638,-52.574 0,-62.607 0,0"
               style="fill:#f0f9ff;fill-opacity:1;fill-rule:nonzero;stroke:none"
               id="path5778" />
          </g>
          <g
             id="g5780"
             transform="translate(725.6245,623.7329)">
            <path
               d="m 0,0 -0.058,0.478 h -109.505 v -109.965 c 0,-21.356 -1.341,-34.381 -2.881,-42.823 0,0 0.361,-15.233 57.663,-15.233 57.301,0 57.662,15.233 57.662,15.233 C 1.341,-143.868 0,-130.843 0,-109.487 Z"
               style="fill:#2e2516;fill-opacity:1;fill-rule:nonzero;stroke:none"
               id="path5782" />
          </g>
          <g
             id="g5784"
             transform="translate(725.6246,597.744)">
            <path
               d="m 0,0 v 25.989 l -0.059,0.478 H -109.563 V 0 Z"
               style="fill:#fff6e6;fill-opacity:1;fill-rule:nonzero;stroke:none"
               id="path5786" />
          </g>
          <g
             id="g5788">
            <g
               id="g5790" />
            <g
               id="g5802">
              <g
                 clip-path="url(#clipPath5794)"
                 id="g5800"
                 style="opacity:0.30000299">
                <g
                   transform="translate(725.6246,514.2463)"
                   id="g5798">
                  <path
                     d="m 0,0 v 109.487 l -0.059,0.477 h -10.774 c 0.038,-4.79 0.077,-9.579 0.108,-14.37 0.082,-12.705 0.166,-25.411 0.055,-38.117 -0.075,-8.54 4.381,-65.56 -2.919,-78.023 -7.471,-12.753 -19.835,-22.295 -34.095,-26.218 -14.725,-4.05 -30.785,-1.967 -43.96,5.751 -7.558,4.472 -13.754,10.306 -18.59,17.498 -0.538,-8.338 -1.342,-14.552 -2.21,-19.309 0,0 0.361,-15.232 57.663,-15.232 57.301,0 57.662,15.232 57.662,15.232 C 1.341,-34.382 0,-21.356 0,0"
                     style="fill:#2e2516;fill-opacity:1;fill-rule:nonzero;stroke:none"
                     id="path5796" />
                </g>
              </g>
            </g>
          </g>
          <g
             id="g5804">
            <g
               id="g5806" />
            <g
               id="g5818">
              <g
                 clip-path="url(#clipPath5810)"
                 id="g5816">
                <g
                   transform="translate(728.6346,514.2465)"
                   id="g5814">
                  <path
                     d="m 0,0 v 109.486 c 0,0 2.707,0.23 2.707,3.446 0,3.216 -2.756,3.454 -4.594,3.454 h -4.606 c -0.924,-4.144 -1.713,-8.32 -2.381,-12.52 -1.429,-12.804 -1.956,-25.693 -2.062,-38.575 -0.075,-9.028 0.024,-18.055 0.132,-27.082 0.089,-7.48 -0.322,-15.118 0.263,-22.575 0.838,-10.682 3.043,-21.294 2.593,-32.057 -0.421,-10.1 -1.965,-23.167 -8.141,-31.751 -2.237,-3.11 -4.554,-7.139 -7.77,-9.658 -9.015,-7.062 -8.326,-6.816 -19.043,-11.065 -5.205,-2.063 -11.217,-2.579 -16.792,-2.468 -9.365,0.185 -18.916,2.116 -27.879,4.86 -5.21,1.595 -10.38,3.613 -15.736,4.672 -6.424,1.27 -12.561,5.224 -17.352,10.162 -2.07,-6.837 -3.319,-7.793 -0.139,-14.548 6.421,-13.646 63.009,-12.04 63.009,-12.04 0,0 56.587,-1.606 63.008,12.04 C 11.638,-52.574 0,-62.607 0,0"
                     style="fill:#f2f2f2;fill-opacity:1;fill-rule:nonzero;stroke:none"
                     id="path5812" />
                </g>
              </g>
            </g>
          </g>
          <g
             id="g5820">
            <g
               id="g5822" />
            <g
               id="g5834">
              <g
                 clip-path="url(#clipPath5826)"
                 id="g5832"
                 style="opacity:0.19999701">
                <g
                   transform="translate(635.2211,487.5604)"
                   id="g5830">
                  <path
                     d="m 0,0 c 1.747,-1.907 3.572,-3.734 5.475,-5.485 1.776,-1.128 3.592,-2.186 5.447,-3.176 1.914,-0.619 3.848,-1.169 5.795,-1.668 V 143.072 H -7.964 V 14.097 C -5.574,9.249 -2.958,4.522 0,0"
                     style="fill:#f0f9ff;fill-opacity:1;fill-rule:nonzero;stroke:none"
                     id="path5828" />
                </g>
              </g>
            </g>
          </g>
        </g>
      </g>
      <g
         id="g5850"
         transform="translate(650.2433,668.4404)">
        <path
           d="m 0,0 c -39.066,0 -44.515,-52.041 -16.414,-66.658 -0.359,-8.391 4.863,-17.069 15.698,-17.069 10.52,0 15.76,8.182 15.727,16.338 C 44.717,-53.822 39.716,0 0,0"
           style="fill:#fffaf2;fill-opacity:1;fill-rule:nonzero;stroke:none"
           id="path5852" />
      </g>
      <g
         id="g5854"
         transform="translate(648.4528,561.8351)">
        <path
           d="M 0,0 C -10.487,0 -10.487,-16.262 0,-16.262 10.487,-16.262 10.487,0 0,0"
           style="fill:#fffaf2;fill-opacity:1;fill-rule:nonzero;stroke:none"
           id="path5856" />
      </g>
    </g>
  </g>
</svg>
