<?xml version="1.0" encoding="UTF-8" standalone="no"?>
<svg
   xmlns:dc="http://purl.org/dc/elements/1.1/"
   xmlns:cc="http://creativecommons.org/ns#"
   xmlns:rdf="http://www.w3.org/1999/02/22-rdf-syntax-ns#"
   xmlns:svg="http://www.w3.org/2000/svg"
   xmlns="http://www.w3.org/2000/svg"
   id="svg7000"
   version="1.1"
   viewBox="0 0 105.83333 105.83334"
   height="400"
   width="400">
  <defs
     id="defs6994">
    <clipPath
       id="clipPath6366"
       clipPathUnits="userSpaceOnUse">
      <path
         id="path6364"
         d="M 0,800 H 800 V 0 H 0 Z" />
    </clipPath>
    <clipPath
       id="clipPath6344"
       clipPathUnits="userSpaceOnUse">
      <path
         id="path6342"
         d="m 628.752,335.17 h 25.953 V 206.897 h -25.953 z" />
    </clipPath>
    <clipPath
       id="clipPath6328"
       clipPathUnits="userSpaceOnUse">
      <path
         id="path6326"
         d="M 628.752,311.379 H 734.84 V 112.985 H 628.752 Z" />
    </clipPath>
    <clipPath
       id="clipPath6312"
       clipPathUnits="userSpaceOnUse">
      <path
         id="path6310"
         d="M 625.591,330.89 H 731.825 V 176.261 H 625.591 Z" />
    </clipPath>
    <clipPath
       id="clipPath6284"
       clipPathUnits="userSpaceOnUse">
      <path
         id="path6282"
         d="M 621.104,130.563 H 728.989 V 108.844 H 621.104 Z" />
    </clipPath>
    <clipPath
       id="clipPath6242"
       clipPathUnits="userSpaceOnUse">
      <path
         id="path6240"
         d="M 86.5897,635.849 H 177.633 V 436.79 H 86.5897 Z" />
    </clipPath>
    <clipPath
       id="clipPath6226"
       clipPathUnits="userSpaceOnUse">
      <path
         id="path6224"
         d="M 83.2275,635.849 H 127.775 V 458.683 H 83.2275 Z" />
    </clipPath>
    <clipPath
       id="clipPath6210"
       clipPathUnits="userSpaceOnUse">
      <path
         id="path6208"
         d="M 92.0805,632.839 H 179.069 V 451.205 H 92.0805 Z" />
    </clipPath>
    <clipPath
       id="clipPath6182"
       clipPathUnits="userSpaceOnUse">
      <path
         id="path6180"
         d="M 73.8326,450.697 H 181.718 V 428.978 H 73.8326 Z" />
    </clipPath>
  </defs>
  <metadata
     id="metadata6997">
    <rdf:RDF>
      <cc:Work
         rdf:about="">
        <dc:format>image/svg+xml</dc:format>
        <dc:type
           rdf:resource="http://purl.org/dc/dcmitype/StillImage" />
        <dc:title></dc:title>
      </cc:Work>
    </rdf:RDF>
  </metadata>
  <g
     transform="translate(0,-191.16665)"
     id="layer1">
    <g
       transform="translate(-45.989396,13.790408)"
       id="g11799">
      <g
         transform="matrix(0.35277777,0,0,-0.35277777,53.840071,420.82864)"
         id="g6176">
        <g
           id="g6178" />
        <g
           id="g6190">
          <g
             clip-path="url(#clipPath6182)"
             id="g6188"
             style="opacity:0.05000311">
            <g
               transform="translate(181.7176,439.8379)"
               id="g6186">
              <path
                 d="m 0,0 c 0,-5.998 -24.151,-10.859 -53.943,-10.859 -29.791,0 -53.942,4.861 -53.942,10.859 0,5.997 24.151,10.859 53.942,10.859 C -24.151,10.859 0,5.997 0,0"
                 style="fill:#333333;fill-opacity:1;fill-rule:nonzero;stroke:none"
                 id="path6184" />
            </g>
          </g>
        </g>
      </g>
      <g
         id="g6192"
         transform="matrix(0.35277777,0,0,-0.35277777,118.02961,196.51511)">
        <path
           d="m 0,0 h -54.179 -54.18 c -1.605,-35.718 12.441,-187.02 15.251,-193.04 2.809,-6.019 38.929,-6.019 38.929,-6.019 0,0 36.119,0 38.928,6.019 C -12.441,-187.02 1.605,-35.718 0,0"
           style="fill:#f0f9ff;fill-opacity:1;fill-rule:nonzero;stroke:none"
           id="path6194" />
      </g>
      <g
         id="g6196"
         transform="matrix(0.35277777,0,0,-0.35277777,87.843014,261.65365)">
        <path
           d="m 0,0 h 62.778 c 1.786,13.058 10.846,42.138 13.906,78.24 4.107,48.446 6.295,86.509 5.967,103.395 H -19.873 c -0.328,-16.886 1.86,-54.949 5.966,-103.395 C -10.846,42.138 -1.786,13.058 0,0"
           style="fill:#f8e890;fill-opacity:1;fill-rule:nonzero;stroke:none"
           id="path6198" />
      </g>
      <g
         id="g6200"
         transform="matrix(0.35277777,0,0,-0.35277777,116.67346,209.10835)">
        <path
           d="m 0,0 c 0.742,14.237 1.068,25.425 0.927,32.687 h -102.524 c -0.141,-7.262 0.184,-18.45 0.927,-32.687 z"
           style="fill:#fbf7ca;fill-opacity:1;fill-rule:nonzero;stroke:none"
           id="path6202" />
      </g>
      <g
         transform="matrix(0.35277777,0,0,-0.35277777,53.840071,420.82864)"
         id="g6204">
        <g
           id="g6206" />
        <g
           id="g6218">
          <g
             clip-path="url(#clipPath6210)"
             id="g6216"
             style="opacity:0.39999402">
            <g
               transform="translate(179.037,632.8392)"
               id="g6214">
              <path
                 d="m 0,0 h -14.539 v -127.2 c 0,-24.089 -20.101,-44.19 -44.189,-44.19 -10.657,0 -20.528,3.939 -28.228,10.411 1.983,-8.777 3.644,-15.818 4.305,-20.656 h 62.778 c 1.786,13.058 10.846,42.139 13.907,78.24 C -1.86,-54.948 0.328,-16.886 0,0"
                 style="fill:#f8e890;fill-opacity:1;fill-rule:nonzero;stroke:none"
                 id="path6212" />
            </g>
          </g>
        </g>
      </g>
      <g
         transform="matrix(0.35277777,0,0,-0.35277777,53.840071,420.82864)"
         id="g6220">
        <g
           id="g6222" />
        <g
           id="g6234">
          <g
             clip-path="url(#clipPath6226)"
             id="g6232"
             style="opacity:0.19999701">
            <g
               transform="translate(127.7751,458.6833)"
               id="g6230">
              <path
                 d="m 0,0 -10.234,177.166 h -34.314 c 0,0 3.612,-95.295 9.03,-136.23 C -30.1,0 0,0 0,0"
                 style="fill:#f0f9ff;fill-opacity:1;fill-rule:nonzero;stroke:none"
                 id="path6228" />
            </g>
          </g>
        </g>
      </g>
      <g
         transform="matrix(0.35277777,0,0,-0.35277777,53.840071,420.82864)"
         id="g6236">
        <g
           id="g6238" />
        <g
           id="g6250">
          <g
             clip-path="url(#clipPath6242)"
             id="g6248">
            <g
               transform="translate(177.5119,635.8494)"
               id="g6246">
              <path
                 d="m 0,0 h -4.335 c 2.379,-17.336 -11.967,-153.086 -19.782,-170.574 -4.502,-10.071 -15.172,-17.42 -25.179,-20.307 -10.874,-3.138 -22.734,-1.524 -32.464,4.454 -3.391,2.084 -6.469,4.665 -9.162,7.624 0.94,-8.052 1.699,-13.22 2.151,-14.237 2.679,-6.019 37.116,-6.019 37.116,-6.019 0,0 34.437,0 37.115,6.019 C -11.862,-187.02 1.531,-35.718 0,0"
                 style="fill:#f2f2f2;fill-opacity:1;fill-rule:nonzero;stroke:none"
                 id="path6244" />
            </g>
          </g>
        </g>
      </g>
      <g
         id="g6266"
         transform="matrix(0.35277777,0,0,-0.35277777,116.94567,193.34871)">
        <path
           d="m 0,0 c -10.664,6.341 -23.63,3.386 -26.63,-9.313 -1.252,-5.303 -1.138,-12.005 2.486,-16.413 0.974,-1.183 1.939,-2.14 2.999,-2.974 -0.255,-0.922 -0.43,-1.9 -0.543,-2.894 -0.33,-2.888 1.027,-6.874 2.323,-9.357 0.317,-0.606 1.616,-2.336 2.913,-4.131 -0.266,-0.859 -0.459,-1.773 -0.471,-2.824 -0.06,-4.878 2.782,-8.202 7.819,-7.859 2.106,0.143 3.741,1.299 4.392,3.343 0.881,2.771 0.026,5.072 -1.298,7.322 0.378,0.368 0.789,0.709 1.267,0.992 2.108,1.76 3.605,3.572 4.886,5.969 1.807,3.383 0.757,7.908 -1.607,10.834 3.856,3.03 6.712,6.213 6.893,11.703 C 5.619,-9.877 5.661,-3.366 0,0"
           style="fill:#fffaf2;fill-opacity:1;fill-rule:nonzero;stroke:none"
           id="path6268" />
      </g>
      <g
         id="g6270"
         transform="matrix(0.35277777,0,0,-0.35277777,99.800593,192.71826)">
        <path
           d="m 0,0 c -2.99,0.882 -5.534,-0.234 -7.652,-2.02 -2.665,1.918 -5.731,3.316 -8.987,2.784 -3.91,-0.64 -6.255,-2.833 -8.726,-5.283 -3.957,3.628 -6.288,8.044 -12.821,8.878 -6.102,0.78 -15.137,0.021 -18.647,-6.124 -3.187,-5.579 -3.016,-12.34 0.016,-18.073 2.59,-4.898 5.508,-6.377 9.427,-7.172 -3.074,-13.138 15.244,-26.143 24.575,-8.983 0.936,1.721 1.424,3.666 1.891,5.548 0.204,0.98 0.236,1.968 0.097,2.964 0.015,0.355 0.019,0.655 0.015,0.919 4.026,1.314 8.061,1.614 11.305,4.963 1.662,1.716 2.178,2.417 3.16,4.637 0.779,1.76 1.524,0.59 3.765,1.115 3.911,0.915 6.647,2.086 8.265,5.719 0.477,0.9 0.827,1.917 0.978,3.102 C 7.139,-3.279 2.899,-0.855 0,0"
           style="fill:#fffaf2;fill-opacity:1;fill-rule:nonzero;stroke:none"
           id="path6272" />
      </g>
    </g>
  </g>
</svg>
