<?xml version="1.0" encoding="UTF-8" standalone="no"?>
<svg
   xmlns:dc="http://purl.org/dc/elements/1.1/"
   xmlns:cc="http://creativecommons.org/ns#"
   xmlns:rdf="http://www.w3.org/1999/02/22-rdf-syntax-ns#"
   xmlns:svg="http://www.w3.org/2000/svg"
   xmlns="http://www.w3.org/2000/svg"
   id="svg7000"
   version="1.1"
   viewBox="0 0 105.83333 105.83334"
   height="400"
   width="400">
  <defs
     id="defs6994">
    <clipPath
       id="clipPath6366"
       clipPathUnits="userSpaceOnUse">
      <path
         id="path6364"
         d="M 0,800 H 800 V 0 H 0 Z" />
    </clipPath>
    <clipPath
       id="clipPath6344"
       clipPathUnits="userSpaceOnUse">
      <path
         id="path6342"
         d="m 628.752,335.17 h 25.953 V 206.897 h -25.953 z" />
    </clipPath>
    <clipPath
       id="clipPath6328"
       clipPathUnits="userSpaceOnUse">
      <path
         id="path6326"
         d="M 628.752,311.379 H 734.84 V 112.985 H 628.752 Z" />
    </clipPath>
    <clipPath
       id="clipPath6312"
       clipPathUnits="userSpaceOnUse">
      <path
         id="path6310"
         d="M 625.591,330.89 H 731.825 V 176.261 H 625.591 Z" />
    </clipPath>
    <clipPath
       id="clipPath6284"
       clipPathUnits="userSpaceOnUse">
      <path
         id="path6282"
         d="M 621.104,130.563 H 728.989 V 108.844 H 621.104 Z" />
    </clipPath>
  </defs>
  <metadata
     id="metadata6997">
    <rdf:RDF>
      <cc:Work
         rdf:about="">
        <dc:format>image/svg+xml</dc:format>
        <dc:type
           rdf:resource="http://purl.org/dc/dcmitype/StillImage" />
        <dc:title></dc:title>
      </cc:Work>
    </rdf:RDF>
  </metadata>
  <g
     transform="translate(0,-191.16665)"
     id="layer1">
    <g
       transform="translate(9.2210945e-5,1.5117812)"
       id="g11606">
      <g
         id="g6274"
         transform="matrix(0.35277777,0,0,-0.35277777,65.495201,203.00178)">
        <path
           d="m 0,0 c -10.59,6.464 -23.589,3.658 -26.735,-9.005 -1.314,-5.288 -1.277,-11.992 2.297,-16.441 0.959,-1.194 1.913,-2.163 2.964,-3.008 -0.266,-0.919 -0.452,-1.895 -0.577,-2.888 -0.363,-2.884 0.948,-6.885 2.215,-9.383 0.31,-0.61 1.589,-2.355 2.865,-4.165 -0.276,-0.856 -0.479,-1.767 -0.504,-2.817 -0.115,-4.877 2.688,-8.234 7.729,-7.95 2.107,0.119 3.755,1.256 4.429,3.293 0.914,2.76 0.086,5.071 -1.212,7.337 0.382,0.363 0.796,0.699 1.278,0.976 2.128,1.736 3.646,3.531 4.954,5.913 1.846,3.362 0.848,7.899 -1.482,10.852 3.891,2.985 6.783,6.135 7.028,11.622 C 5.504,-9.941 5.622,-3.431 0,0"
           style="fill:#fffaf2;fill-opacity:1;fill-rule:nonzero;stroke:none"
           id="path6276" />
      </g>
      <g
         transform="matrix(0.35277777,0,0,-0.35277777,-185.2248,323.42825)"
         id="g6278">
        <g
           id="g6280" />
        <g
           id="g6292">
          <g
             clip-path="url(#clipPath6284)"
             id="g6290"
             style="opacity:0.05000311">
            <g
               transform="translate(728.9889,119.7033)"
               id="g6288">
              <path
                 d="m 0,0 c 0,-5.998 -24.151,-10.859 -53.943,-10.859 -29.791,0 -53.942,4.861 -53.942,10.859 0,5.997 24.151,10.859 53.942,10.859 C -24.151,10.859 0,5.997 0,0"
                 style="fill:#333333;fill-opacity:1;fill-rule:nonzero;stroke:none"
                 id="path6286" />
            </g>
          </g>
        </g>
      </g>
      <g
         id="g6294"
         transform="matrix(0.35277777,0,0,-0.35277777,73.304008,243.09448)">
        <path
           d="m 0,0 c 9.231,40.534 -16.454,105.55 -16.454,105.55 0,0 -14.85,2.006 -41.337,2.006 -26.488,0 -41.337,-2.006 -41.337,-2.006 0,0 -25.685,-65.016 -16.455,-105.55 9.231,-40.534 45.35,-53.778 45.35,-53.778 0,0 3.612,-16.856 3.612,-33.712 0,-16.856 -40.133,-15.25 -37.323,-20.869 2.809,-5.619 46.153,-6.374 46.153,-6.374 0,0 43.343,0.755 46.153,6.374 2.809,5.619 -37.324,4.013 -37.324,20.869 0,16.856 3.612,33.712 3.612,33.712 0,0 36.119,13.244 45.35,53.778"
           style="fill:#f0f9ff;fill-opacity:1;fill-rule:nonzero;stroke:none"
           id="path6296" />
      </g>
      <g
         id="g6298"
         transform="matrix(0.35277777,0,0,-0.35277777,42.361643,257.07133)">
        <path
           d="m 0,0 c 9.69,-8.019 18.431,-11.301 18.514,-11.333 l 1.378,-0.505 h 20.055 l 1.377,0.505 c 0.346,0.127 34.686,13.127 43.452,51.621 8.107,35.6 -11.816,91.738 -15.684,102.105 -4.65,0.507 -18.335,1.773 -39.173,1.773 -20.838,0 -34.523,-1.266 -39.173,-1.773 C -13.123,132.03 -33.049,75.91 -24.937,40.288 -21.279,24.22 -12.888,10.665 0,0"
           style="fill:#fcce47;fill-opacity:1;fill-rule:nonzero;stroke:none"
           id="path6300" />
      </g>
      <g
         id="g6302"
         transform="matrix(0.35277777,0,0,-0.35277777,69.900508,216.75318)">
        <path
           d="m 0,0 c -3.696,13.565 -7.498,24.157 -8.971,28.105 -4.65,0.508 -18.334,1.773 -39.173,1.773 -20.838,0 -34.523,-1.265 -39.173,-1.773 -1.474,-3.948 -5.278,-14.539 -8.974,-28.105 0,0 9.256,7.604 48.145,7.604 C -9.257,7.604 0,0 0,0"
           style="fill:#fff1d9;fill-opacity:1;fill-rule:nonzero;stroke:none"
           id="path6304" />
      </g>
      <g
         transform="matrix(0.35277777,0,0,-0.35277777,-185.2248,323.42825)"
         id="g6306">
        <g
           id="g6308" />
        <g
           id="g6320">
          <g
             clip-path="url(#clipPath6312)"
             id="g6318"
             style="opacity:0.30000299">
            <g
               transform="translate(714.2189,330.4911)"
               id="g6316">
              <path
                 d="m 0,0 c -0.97,0.106 -2.339,0.245 -4.079,0.398 2.486,-6.174 4.658,-12.476 6.229,-18.889 5.086,-20.759 6.809,-42.587 3.998,-63.794 -0.03,-9.746 -2.488,-18.829 -7.372,-27.25 -2.814,-3.642 -5.628,-7.285 -8.442,-10.927 -10.079,-10.08 -23.915,-15.814 -38.177,-15.814 -14.263,0 -28.098,5.734 -38.178,15.814 -0.908,0.914 -1.775,1.853 -2.607,2.811 4.52,-9.427 11.045,-17.715 19.536,-24.742 9.69,-8.019 18.431,-11.301 18.514,-11.333 l 1.378,-0.504 h 20.055 l 1.377,0.504 c 0.347,0.127 34.686,13.127 43.452,51.621 C 23.791,-66.505 3.868,-10.367 0,0"
                 style="fill:#f5c71c;fill-opacity:1;fill-rule:nonzero;stroke:none"
                 id="path6314" />
            </g>
          </g>
        </g>
      </g>
      <g
         transform="matrix(0.35277777,0,0,-0.35277777,-185.2248,323.42825)"
         id="g6322">
        <g
           id="g6324" />
        <g
           id="g6336">
          <g
             clip-path="url(#clipPath6328)"
             id="g6334">
            <g
               transform="translate(732.8379,227.7177)"
               id="g6332">
              <path
                 d="M 0,0 C 5.84,25.645 -2.295,61.083 -9.061,83.662 -7.693,70.634 -7.868,57.605 -8.27,44.491 -8.827,26.305 -11.34,8.68 -17.283,-8.586 c -2.685,-7.801 -6.208,-14.635 -11.904,-20.687 -4.558,-4.841 -9.844,-8.864 -14.734,-13.347 -11.604,-13.197 -7.437,-46.12 -7.894,-50.668 -0.012,-0.118 -0.028,-0.234 -0.044,-0.351 3.392,-4.635 15.076,-13.359 -6.175,-13.093 -12.908,-0.011 -25.891,-0.191 -38.535,2.299 -4.954,-1.125 -8.251,-2.175 -7.376,-3.926 2.81,-5.619 46.153,-6.374 46.153,-6.374 0,0 43.344,0.755 46.153,6.374 2.81,5.619 -37.323,4.013 -37.323,20.869 0,16.856 3.612,33.712 3.612,33.712 0,0 36.119,13.244 45.35,53.778"
                 style="fill:#f2f2f2;fill-opacity:1;fill-rule:nonzero;stroke:none"
                 id="path6330" />
            </g>
          </g>
        </g>
      </g>
      <g
         transform="matrix(0.35277777,0,0,-0.35277777,-185.2248,323.42825)"
         id="g6338">
        <g
           id="g6340" />
        <g
           id="g6352">
          <g
             clip-path="url(#clipPath6344)"
             id="g6350"
             style="opacity:0.19999701">
            <g
               transform="translate(635.592,218.5334)"
               id="g6348">
              <path
                 d="m 0,0 c 3.461,-3.994 7.165,-7.764 11.12,-11.266 0.189,-0.126 0.381,-0.246 0.57,-0.37 -0.196,1.59 -0.389,3.182 -0.576,4.775 -1.852,15.747 -2.313,31.715 -0.707,47.504 1.746,17.15 4.667,34.122 7.167,51.161 0.87,7.555 1.457,15.135 1.486,22.75 0.003,0.697 0.024,1.391 0.053,2.083 C 12.458,116.5 6.796,116.246 2.198,115.965 1.639,113.167 1.11,110.353 0.581,107.521 -1.013,98.985 -2.46,90.425 -3.73,81.836 -6.63,57.74 -7.891,33.335 -5.807,9.146 -3.991,6.026 -2.055,2.974 0,0"
                 style="fill:#f0f9ff;fill-opacity:1;fill-rule:nonzero;stroke:none"
                 id="path6346" />
            </g>
          </g>
        </g>
      </g>
      <g
         transform="matrix(0.35277777,0,0,-0.35277777,-185.2248,323.42825)"
         clip-path="url(#clipPath6366)"
         id="g6362">
        <g
           transform="translate(690.4858,344.4565)"
           id="g6368">
          <path
             id="path6370"
             style="fill:#fffaf2;fill-opacity:1;fill-rule:nonzero;stroke:none"
             d="m 0,0 c -2.98,0.916 -5.536,-0.17 -7.675,-1.932 -2.642,1.949 -5.692,3.382 -8.954,2.887 -3.917,-0.594 -6.287,-2.759 -8.787,-5.182 -3.914,3.674 -6.194,8.117 -12.717,9.026 -6.092,0.85 -15.136,0.195 -18.717,-5.909 -3.251,-5.542 -3.157,-12.304 -0.192,-18.071 2.533,-4.929 5.434,-6.44 9.344,-7.281 -3.226,-13.102 14.942,-26.317 24.47,-9.266 0.956,1.71 1.465,3.649 1.955,5.526 0.214,0.978 0.258,1.965 0.13,2.963 0.02,0.355 0.027,0.655 0.026,0.919 4.041,1.267 8.079,1.52 11.362,4.832 1.681,1.697 2.206,2.392 3.213,4.601 0.799,1.75 1.53,0.572 3.777,1.071 3.921,0.87 6.671,2.009 8.33,5.624 0.489,0.894 0.85,1.907 1.015,3.09 C 7.101,-3.361 2.889,-0.888 0,0" />
        </g>
      </g>
    </g>
  </g>
</svg>
