<?xml version="1.0" encoding="UTF-8" standalone="no"?>
<!-- Created with Inkscape (http://www.inkscape.org/) -->

<svg
   xmlns:dc="http://purl.org/dc/elements/1.1/"
   xmlns:cc="http://creativecommons.org/ns#"
   xmlns:rdf="http://www.w3.org/1999/02/22-rdf-syntax-ns#"
   xmlns:svg="http://www.w3.org/2000/svg"
   xmlns="http://www.w3.org/2000/svg"
   xmlns:sodipodi="http://sodipodi.sourceforge.net/DTD/sodipodi-0.dtd"
   xmlns:inkscape="http://www.inkscape.org/namespaces/inkscape"
   width="400"
   height="400"
   viewBox="0 0 105.83333 105.83334"
   version="1.1"
   id="svg7000"
   inkscape:version="0.92.4 (unknown)"
   sodipodi:docname="beer6.svg">
  <defs
     id="defs6994">
    <clipPath
       clipPathUnits="userSpaceOnUse"
       id="clipPath6366">
      <path
         d="M 0,800 H 800 V 0 H 0 Z"
         id="path6364"
         inkscape:connector-curvature="0" />
    </clipPath>
    <clipPath
       clipPathUnits="userSpaceOnUse"
       id="clipPath6344">
      <path
         d="m 628.752,335.17 h 25.953 V 206.897 h -25.953 z"
         id="path6342"
         inkscape:connector-curvature="0" />
    </clipPath>
    <clipPath
       clipPathUnits="userSpaceOnUse"
       id="clipPath6328">
      <path
         d="M 628.752,311.379 H 734.84 V 112.985 H 628.752 Z"
         id="path6326"
         inkscape:connector-curvature="0" />
    </clipPath>
    <clipPath
       clipPathUnits="userSpaceOnUse"
       id="clipPath6312">
      <path
         d="M 625.591,330.89 H 731.825 V 176.261 H 625.591 Z"
         id="path6310"
         inkscape:connector-curvature="0" />
    </clipPath>
    <clipPath
       clipPathUnits="userSpaceOnUse"
       id="clipPath6284">
      <path
         d="M 621.104,130.563 H 728.989 V 108.844 H 621.104 Z"
         id="path6282"
         inkscape:connector-curvature="0" />
    </clipPath>
    <clipPath
       clipPathUnits="userSpaceOnUse"
       id="clipPath6242">
      <path
         d="M 86.5897,635.849 H 177.633 V 436.79 H 86.5897 Z"
         id="path6240"
         inkscape:connector-curvature="0" />
    </clipPath>
    <clipPath
       clipPathUnits="userSpaceOnUse"
       id="clipPath6226">
      <path
         d="M 83.2275,635.849 H 127.775 V 458.683 H 83.2275 Z"
         id="path6224"
         inkscape:connector-curvature="0" />
    </clipPath>
    <clipPath
       clipPathUnits="userSpaceOnUse"
       id="clipPath6210">
      <path
         d="M 92.0805,632.839 H 179.069 V 451.205 H 92.0805 Z"
         id="path6208"
         inkscape:connector-curvature="0" />
    </clipPath>
    <clipPath
       clipPathUnits="userSpaceOnUse"
       id="clipPath6182">
      <path
         d="M 73.8326,450.697 H 181.718 V 428.978 H 73.8326 Z"
         id="path6180"
         inkscape:connector-curvature="0" />
    </clipPath>
    <clipPath
       clipPathUnits="userSpaceOnUse"
       id="clipPath5596">
      <path
         d="m 268.434,659.32 h 29.644 V 475.969 h -29.644 z"
         id="path5594"
         inkscape:connector-curvature="0" />
    </clipPath>
    <clipPath
       clipPathUnits="userSpaceOnUse"
       id="clipPath5580">
      <path
         d="m 268.758,654.347 h 95.383 v -221.47 h -95.383 z"
         id="path5578"
         inkscape:connector-curvature="0" />
    </clipPath>
    <clipPath
       clipPathUnits="userSpaceOnUse"
       id="clipPath5564">
      <path
         d="m 274.02,653.059 h 87.106 V 453.697 H 274.02 Z"
         id="path5562"
         inkscape:connector-curvature="0" />
    </clipPath>
    <clipPath
       clipPathUnits="userSpaceOnUse"
       id="clipPath5536">
      <path
         d="M 256.256,450.697 H 364.141 V 428.978 H 256.256 Z"
         id="path5534"
         inkscape:connector-curvature="0" />
    </clipPath>
    <clipPath
       clipPathUnits="userSpaceOnUse"
       id="clipPath6088">
      <path
         d="M 438.68,450.697 H 546.565 V 428.978 H 438.68 Z"
         id="path6086"
         inkscape:connector-curvature="0" />
    </clipPath>
    <clipPath
       clipPathUnits="userSpaceOnUse"
       id="clipPath6116">
      <path
         d="M 443.167,651.532 H 549.401 V 496.903 H 443.167 Z"
         id="path6114"
         inkscape:connector-curvature="0" />
    </clipPath>
    <clipPath
       clipPathUnits="userSpaceOnUse"
       id="clipPath6132">
      <path
         d="M 446.329,632.021 H 552.416 V 433.627 H 446.329 Z"
         id="path6130"
         inkscape:connector-curvature="0" />
    </clipPath>
    <clipPath
       clipPathUnits="userSpaceOnUse"
       id="clipPath6148">
      <path
         d="m 446.329,655.812 h 25.953 V 527.539 h -25.953 z"
         id="path6146"
         inkscape:connector-curvature="0" />
    </clipPath>
    <clipPath
       clipPathUnits="userSpaceOnUse"
       id="clipPath5718">
      <path
         d="M 0,800 H 800 V 0 H 0 Z"
         id="path5716"
         inkscape:connector-curvature="0" />
    </clipPath>
    <clipPath
       clipPathUnits="userSpaceOnUse"
       id="clipPath5730">
      <path
         d="M 596.212,462.77 H 753.88 V 428.978 H 596.212 Z"
         id="path5728"
         inkscape:connector-curvature="0" />
    </clipPath>
    <clipPath
       clipPathUnits="userSpaceOnUse"
       id="clipPath5750">
      <path
         d="m 728.595,607.344 h 8.856 v -17.091 h -8.856 z"
         id="path5748"
         inkscape:connector-curvature="0" />
    </clipPath>
    <clipPath
       clipPathUnits="userSpaceOnUse"
       id="clipPath5766">
      <path
         d="M 728.735,503.471 H 744.63 V 482.205 H 728.735 Z"
         id="path5764"
         inkscape:connector-curvature="0" />
    </clipPath>
    <clipPath
       clipPathUnits="userSpaceOnUse"
       id="clipPath5794">
      <path
         d="M 613.181,624.211 H 728.505 V 456.19 H 613.181 Z"
         id="path5792"
         inkscape:connector-curvature="0" />
    </clipPath>
    <clipPath
       clipPathUnits="userSpaceOnUse"
       id="clipPath5810">
      <path
         d="M 605.902,630.632 H 735.784 V 435.929 H 605.902 Z"
         id="path5808"
         inkscape:connector-curvature="0" />
    </clipPath>
    <clipPath
       clipPathUnits="userSpaceOnUse"
       id="clipPath5826">
      <path
         d="m 627.257,630.632 h 24.681 V 477.231 h -24.681 z"
         id="path5824"
         inkscape:connector-curvature="0" />
    </clipPath>
    <clipPath
       clipPathUnits="userSpaceOnUse"
       id="clipPath5864">
      <path
         d="M 73.8326,130.563 H 181.718 V 108.844 H 73.8326 Z"
         id="path5862"
         inkscape:connector-curvature="0" />
    </clipPath>
    <clipPath
       clipPathUnits="userSpaceOnUse"
       id="clipPath5892">
      <path
         d="M 91.5965,332.417 H 178.702 V 133.055 H 91.5965 Z"
         id="path5890"
         inkscape:connector-curvature="0" />
    </clipPath>
    <clipPath
       clipPathUnits="userSpaceOnUse"
       id="clipPath5908">
      <path
         d="M 86.3338,333.705 H 181.718 V 112.235 H 86.3338 Z"
         id="path5906"
         inkscape:connector-curvature="0" />
    </clipPath>
    <clipPath
       clipPathUnits="userSpaceOnUse"
       id="clipPath5924">
      <path
         d="M 86.0099,338.678 H 115.654 V 155.327 H 86.0099 Z"
         id="path5922"
         inkscape:connector-curvature="0" />
    </clipPath>
    <clipPath
       clipPathUnits="userSpaceOnUse"
       id="clipPath5958">
      <path
         d="M 228.432,142.636 H 386.1 V 108.844 H 228.432 Z"
         id="path5956"
         inkscape:connector-curvature="0" />
    </clipPath>
    <clipPath
       clipPathUnits="userSpaceOnUse"
       id="clipPath5978">
      <path
         d="m 363.748,286.702 h 8.856 v -17.091 h -8.856 z"
         id="path5976"
         inkscape:connector-curvature="0" />
    </clipPath>
    <clipPath
       clipPathUnits="userSpaceOnUse"
       id="clipPath5994">
      <path
         d="m 363.887,182.829 h 15.895 v -21.266 h -15.895 z"
         id="path5992"
         inkscape:connector-curvature="0" />
    </clipPath>
    <clipPath
       clipPathUnits="userSpaceOnUse"
       id="clipPath6022">
      <path
         d="M 248.333,303.569 H 363.658 V 135.548 H 248.333 Z"
         id="path6020"
         inkscape:connector-curvature="0" />
    </clipPath>
    <clipPath
       clipPathUnits="userSpaceOnUse"
       id="clipPath6038">
      <path
         d="M 241.054,309.99 H 370.937 V 115.287 H 241.054 Z"
         id="path6036"
         inkscape:connector-curvature="0" />
    </clipPath>
    <clipPath
       clipPathUnits="userSpaceOnUse"
       id="clipPath6054">
      <path
         d="m 262.409,309.99 h 24.682 v -153.4 h -24.682 z"
         id="path6052"
         inkscape:connector-curvature="0" />
    </clipPath>
  </defs>
  <sodipodi:namedview
     id="base"
     pagecolor="#ffffff"
     bordercolor="#666666"
     borderopacity="1.0"
     inkscape:pageopacity="0.0"
     inkscape:pageshadow="2"
     inkscape:zoom="2.0625"
     inkscape:cx="200"
     inkscape:cy="200"
     inkscape:document-units="mm"
     inkscape:current-layer="layer1"
     showgrid="false"
     units="px"
     inkscape:window-width="1920"
     inkscape:window-height="1016"
     inkscape:window-x="0"
     inkscape:window-y="27"
     inkscape:window-maximized="1" />
  <metadata
     id="metadata6997">
    <rdf:RDF>
      <cc:Work
         rdf:about="">
        <dc:format>image/svg+xml</dc:format>
        <dc:type
           rdf:resource="http://purl.org/dc/dcmitype/StillImage" />
        <dc:title></dc:title>
      </cc:Work>
    </rdf:RDF>
  </metadata>
  <g
     inkscape:label="Layer 1"
     inkscape:groupmode="layer"
     id="layer1"
     transform="translate(0,-191.16665)">
    <g
       transform="matrix(0.35277777,0,0,-0.35277777,-57.815935,321.32929)"
       id="g12253">
      <g
         id="g5952">
        <g
           id="g5954" />
        <g
           id="g5966">
          <g
             style="opacity:0.05000311"
             id="g5964"
             clip-path="url(#clipPath5958)">
            <g
               id="g5962"
               transform="translate(386.1,125.7398)">
              <path
                 inkscape:connector-curvature="0"
                 id="path5960"
                 style="fill:#333333;fill-opacity:1;fill-rule:nonzero;stroke:none"
                 d="m 0,0 c 0,-9.331 -35.295,-16.896 -78.834,-16.896 -43.539,0 -78.834,7.565 -78.834,16.896 0,9.331 35.295,16.896 78.834,16.896 C -35.295,16.896 0,9.331 0,0" />
            </g>
          </g>
        </g>
      </g>
      <g
         transform="translate(383.4137,281.6389)"
         id="g5968">
        <path
           inkscape:connector-curvature="0"
           id="path5970"
           style="fill:#f0f9ff;fill-opacity:1;fill-rule:nonzero;stroke:none"
           d="m 0,0 c -6.146,2.837 -13.102,4.332 -19.666,5.063 v -16.564 c 6.14,-0.074 11.628,-0.756 12.784,-2.836 2.867,-5.162 12.33,-72.547 3.728,-79.142 -4.729,-3.625 -9.808,-7.42 -16.372,-9.678 0,0 0.676,-17.132 1.355,-16.917 10.897,3.441 33.942,9.964 33.942,30.896 C 15.771,-68.246 18.638,-8.602 0,0" />
      </g>
      <g
         id="g5972">
        <g
           id="g5974" />
        <g
           id="g5986">
          <g
             id="g5984"
             clip-path="url(#clipPath5978)">
            <g
               id="g5982"
               transform="translate(370.9319,274.0922)">
              <path
                 inkscape:connector-curvature="0"
                 id="path5980"
                 style="fill:#f0f9ff;fill-opacity:1;fill-rule:nonzero;stroke:none"
                 d="m 0,0 c 0,3.853 0.59,7.588 1.672,11.124 -2.96,0.675 -5.946,1.162 -8.856,1.486 V -3.954 C -4.462,-3.987 -1.87,-4.14 0.275,-4.481 0.1,-3.008 0,-1.514 0,0" />
            </g>
          </g>
        </g>
      </g>
      <g
         id="g5988">
        <g
           id="g5990" />
        <g
           id="g6002">
          <g
             id="g6000"
             clip-path="url(#clipPath5994)">
            <g
               id="g5998"
               transform="translate(372.795,182.8292)">
              <path
                 inkscape:connector-curvature="0"
                 id="path5996"
                 style="fill:#f0f9ff;fill-opacity:1;fill-rule:nonzero;stroke:none"
                 d="m 0,0 c -2.69,-1.692 -5.612,-3.214 -8.908,-4.347 0,0 0.677,-17.132 1.356,-16.918 3.848,1.216 9.211,2.82 14.539,5.302 C 3.536,-11.298 1.097,-5.863 0,0" />
            </g>
          </g>
        </g>
      </g>
      <g
         transform="translate(363.787,193.6046)"
         id="g6004">
        <path
           inkscape:connector-curvature="0"
           id="path6006"
           style="fill:#f0f9ff;fill-opacity:1;fill-rule:nonzero;stroke:none"
           d="m 0,0 v 109.486 c 0,0 2.707,0.23 2.707,3.446 0,3.216 -2.756,3.454 -4.594,3.454 h -55.904 -55.905 c -1.838,0 -4.594,-0.238 -4.594,-3.454 0,-3.216 2.707,-3.446 2.707,-3.446 V 0 c 0,-62.607 -11.638,-52.574 -5.217,-66.219 6.421,-13.646 63.009,-12.04 63.009,-12.04 0,0 56.587,-1.606 63.008,12.04 C 11.638,-52.574 0,-62.607 0,0" />
      </g>
      <g
         transform="translate(360.777,303.091)"
         id="g6008">
        <path
           inkscape:connector-curvature="0"
           id="path6010"
           style="fill:#ef6f24;fill-opacity:1;fill-rule:nonzero;stroke:none"
           d="m 0,0 -0.058,0.478 h -109.505 v -109.965 c 0,-21.356 -1.341,-34.381 -2.881,-42.823 0,0 0.361,-15.233 57.663,-15.233 57.301,0 57.662,15.233 57.662,15.233 C 1.341,-143.868 0,-130.843 0,-109.487 Z" />
      </g>
      <g
         transform="translate(360.7771,277.1021)"
         id="g6012">
        <path
           inkscape:connector-curvature="0"
           id="path6014"
           style="fill:#fbf7ca;fill-opacity:1;fill-rule:nonzero;stroke:none"
           d="m 0,0 v 25.989 l -0.058,0.478 H -109.563 V 0 Z" />
      </g>
      <g
         id="g6016">
        <g
           id="g6018" />
        <g
           id="g6030">
          <g
             style="opacity:0.30000299"
             id="g6028"
             clip-path="url(#clipPath6022)">
            <g
               id="g6026"
               transform="translate(360.7771,193.6044)">
              <path
                 inkscape:connector-curvature="0"
                 id="path6024"
                 style="fill:#e07227;fill-opacity:1;fill-rule:nonzero;stroke:none"
                 d="m 0,0 v 109.487 l -0.058,0.478 h -10.775 c 0.038,-4.791 0.077,-9.58 0.108,-14.371 0.082,-12.705 0.166,-25.411 0.055,-38.117 -0.075,-8.54 4.382,-65.56 -2.919,-78.023 -7.471,-12.753 -19.835,-22.295 -34.095,-26.218 -14.725,-4.05 -30.785,-1.967 -43.96,5.751 -7.558,4.472 -13.754,10.306 -18.59,17.498 -0.538,-8.338 -1.342,-14.552 -2.21,-19.309 0,0 0.361,-15.232 57.663,-15.232 57.301,0 57.662,15.232 57.662,15.232 C 1.341,-34.382 0,-21.356 0,0" />
            </g>
          </g>
        </g>
      </g>
      <g
         id="g6032">
        <g
           id="g6034" />
        <g
           id="g6046">
          <g
             id="g6044"
             clip-path="url(#clipPath6038)">
            <g
               id="g6042"
               transform="translate(363.7871,193.6046)">
              <path
                 inkscape:connector-curvature="0"
                 id="path6040"
                 style="fill:#f2f2f2;fill-opacity:1;fill-rule:nonzero;stroke:none"
                 d="m 0,0 v 109.486 c 0,0 2.707,0.23 2.707,3.446 0,3.216 -2.756,3.454 -4.594,3.454 h -4.606 c -0.924,-4.144 -1.713,-8.32 -2.381,-12.52 -1.429,-12.804 -1.956,-25.693 -2.062,-38.575 -0.075,-9.028 0.024,-18.055 0.132,-27.082 0.089,-7.48 -0.322,-15.119 0.263,-22.575 0.838,-10.682 3.043,-21.294 2.593,-32.057 -0.421,-10.1 -1.965,-23.167 -8.141,-31.751 -2.237,-3.11 -4.554,-7.139 -7.77,-9.659 -9.015,-7.061 -8.326,-6.815 -19.043,-11.064 -5.205,-2.063 -11.217,-2.579 -16.792,-2.468 -9.365,0.185 -18.916,2.116 -27.879,4.86 -5.21,1.595 -10.38,3.613 -15.736,4.672 -6.424,1.27 -12.561,5.224 -17.352,10.162 -2.07,-6.837 -3.319,-7.793 -0.139,-14.548 6.421,-13.646 63.009,-12.04 63.009,-12.04 0,0 56.587,-1.606 63.008,12.04 C 11.638,-52.574 0,-62.607 0,0" />
            </g>
          </g>
        </g>
      </g>
      <g
         id="g6048">
        <g
           id="g6050" />
        <g
           id="g6062">
          <g
             style="opacity:0.19999701"
             id="g6060"
             clip-path="url(#clipPath6054)">
            <g
               id="g6058"
               transform="translate(270.3736,166.9185)">
              <path
                 inkscape:connector-curvature="0"
                 id="path6056"
                 style="fill:#f0f9ff;fill-opacity:1;fill-rule:nonzero;stroke:none"
                 d="m 0,0 c 1.747,-1.907 3.572,-3.734 5.475,-5.485 1.776,-1.128 3.592,-2.186 5.447,-3.176 1.914,-0.619 3.848,-1.169 5.795,-1.668 V 143.072 H -7.964 V 14.097 C -5.574,9.249 -2.959,4.522 0,0" />
            </g>
          </g>
        </g>
      </g>
      <g
         transform="translate(360.0088,317.0647)"
         id="g6078">
        <path
           inkscape:connector-curvature="0"
           id="path6080"
           style="fill:#fffde6;fill-opacity:1;fill-rule:nonzero;stroke:none"
           d="m 0,0 c -6.642,8.313 -21.839,10.105 -31.661,11.276 -13.995,1.668 -29.072,0.246 -42.996,-1.425 -13.071,-1.569 -23.828,-2.509 -34.337,-11.114 -1.328,-1.088 -1.867,-2.363 -1.866,-3.612 -1.368,-2.35 -1.237,-5.058 2.125,-7.662 7.606,-5.891 17.484,-10.614 27.266,-12.005 9.362,-4.671 10.69,-17.075 7.518,-27.255 -0.807,-2.587 -2.206,-7.317 -0.754,-9.983 1.344,-2.471 4.743,-4.307 7.615,-3.512 8.885,2.46 5.486,16.66 4.225,23.019 -0.91,4.593 -3.466,12.816 3.451,13.683 2.641,0.331 5.468,-0.461 8.11,-0.596 1.875,-0.095 3.686,0.215 5.456,0.723 1.538,0.061 3.098,0.215 4.689,0.498 6.369,1.135 11.759,6.419 18.257,8.02 5.289,1.302 10.845,1.769 15.773,4.272 C -1.48,-12.804 5.204,-6.512 0,0" />
      </g>
    </g>
  </g>
</svg>
