<?xml version="1.0" encoding="UTF-8" standalone="no"?>
<!-- Created with Inkscape (http://www.inkscape.org/) -->

<svg
   xmlns:dc="http://purl.org/dc/elements/1.1/"
   xmlns:cc="http://creativecommons.org/ns#"
   xmlns:rdf="http://www.w3.org/1999/02/22-rdf-syntax-ns#"
   xmlns:svg="http://www.w3.org/2000/svg"
   xmlns="http://www.w3.org/2000/svg"
   xmlns:sodipodi="http://sodipodi.sourceforge.net/DTD/sodipodi-0.dtd"
   xmlns:inkscape="http://www.inkscape.org/namespaces/inkscape"
   width="400"
   height="400"
   viewBox="0 0 105.83333 105.83334"
   version="1.1"
   id="svg7000"
   inkscape:version="0.92.4 (unknown)"
   sodipodi:docname="beer7.svg">
  <defs
     id="defs6994">
    <clipPath
       clipPathUnits="userSpaceOnUse"
       id="clipPath6366">
      <path
         d="M 0,800 H 800 V 0 H 0 Z"
         id="path6364"
         inkscape:connector-curvature="0" />
    </clipPath>
    <clipPath
       clipPathUnits="userSpaceOnUse"
       id="clipPath6344">
      <path
         d="m 628.752,335.17 h 25.953 V 206.897 h -25.953 z"
         id="path6342"
         inkscape:connector-curvature="0" />
    </clipPath>
    <clipPath
       clipPathUnits="userSpaceOnUse"
       id="clipPath6328">
      <path
         d="M 628.752,311.379 H 734.84 V 112.985 H 628.752 Z"
         id="path6326"
         inkscape:connector-curvature="0" />
    </clipPath>
    <clipPath
       clipPathUnits="userSpaceOnUse"
       id="clipPath6312">
      <path
         d="M 625.591,330.89 H 731.825 V 176.261 H 625.591 Z"
         id="path6310"
         inkscape:connector-curvature="0" />
    </clipPath>
    <clipPath
       clipPathUnits="userSpaceOnUse"
       id="clipPath6284">
      <path
         d="M 621.104,130.563 H 728.989 V 108.844 H 621.104 Z"
         id="path6282"
         inkscape:connector-curvature="0" />
    </clipPath>
    <clipPath
       clipPathUnits="userSpaceOnUse"
       id="clipPath6242">
      <path
         d="M 86.5897,635.849 H 177.633 V 436.79 H 86.5897 Z"
         id="path6240"
         inkscape:connector-curvature="0" />
    </clipPath>
    <clipPath
       clipPathUnits="userSpaceOnUse"
       id="clipPath6226">
      <path
         d="M 83.2275,635.849 H 127.775 V 458.683 H 83.2275 Z"
         id="path6224"
         inkscape:connector-curvature="0" />
    </clipPath>
    <clipPath
       clipPathUnits="userSpaceOnUse"
       id="clipPath6210">
      <path
         d="M 92.0805,632.839 H 179.069 V 451.205 H 92.0805 Z"
         id="path6208"
         inkscape:connector-curvature="0" />
    </clipPath>
    <clipPath
       clipPathUnits="userSpaceOnUse"
       id="clipPath6182">
      <path
         d="M 73.8326,450.697 H 181.718 V 428.978 H 73.8326 Z"
         id="path6180"
         inkscape:connector-curvature="0" />
    </clipPath>
    <clipPath
       clipPathUnits="userSpaceOnUse"
       id="clipPath5596">
      <path
         d="m 268.434,659.32 h 29.644 V 475.969 h -29.644 z"
         id="path5594"
         inkscape:connector-curvature="0" />
    </clipPath>
    <clipPath
       clipPathUnits="userSpaceOnUse"
       id="clipPath5580">
      <path
         d="m 268.758,654.347 h 95.383 v -221.47 h -95.383 z"
         id="path5578"
         inkscape:connector-curvature="0" />
    </clipPath>
    <clipPath
       clipPathUnits="userSpaceOnUse"
       id="clipPath5564">
      <path
         d="m 274.02,653.059 h 87.106 V 453.697 H 274.02 Z"
         id="path5562"
         inkscape:connector-curvature="0" />
    </clipPath>
    <clipPath
       clipPathUnits="userSpaceOnUse"
       id="clipPath5536">
      <path
         d="M 256.256,450.697 H 364.141 V 428.978 H 256.256 Z"
         id="path5534"
         inkscape:connector-curvature="0" />
    </clipPath>
    <clipPath
       clipPathUnits="userSpaceOnUse"
       id="clipPath6088">
      <path
         d="M 438.68,450.697 H 546.565 V 428.978 H 438.68 Z"
         id="path6086"
         inkscape:connector-curvature="0" />
    </clipPath>
    <clipPath
       clipPathUnits="userSpaceOnUse"
       id="clipPath6116">
      <path
         d="M 443.167,651.532 H 549.401 V 496.903 H 443.167 Z"
         id="path6114"
         inkscape:connector-curvature="0" />
    </clipPath>
    <clipPath
       clipPathUnits="userSpaceOnUse"
       id="clipPath6132">
      <path
         d="M 446.329,632.021 H 552.416 V 433.627 H 446.329 Z"
         id="path6130"
         inkscape:connector-curvature="0" />
    </clipPath>
    <clipPath
       clipPathUnits="userSpaceOnUse"
       id="clipPath6148">
      <path
         d="m 446.329,655.812 h 25.953 V 527.539 h -25.953 z"
         id="path6146"
         inkscape:connector-curvature="0" />
    </clipPath>
    <clipPath
       clipPathUnits="userSpaceOnUse"
       id="clipPath5718">
      <path
         d="M 0,800 H 800 V 0 H 0 Z"
         id="path5716"
         inkscape:connector-curvature="0" />
    </clipPath>
    <clipPath
       clipPathUnits="userSpaceOnUse"
       id="clipPath5730">
      <path
         d="M 596.212,462.77 H 753.88 V 428.978 H 596.212 Z"
         id="path5728"
         inkscape:connector-curvature="0" />
    </clipPath>
    <clipPath
       clipPathUnits="userSpaceOnUse"
       id="clipPath5750">
      <path
         d="m 728.595,607.344 h 8.856 v -17.091 h -8.856 z"
         id="path5748"
         inkscape:connector-curvature="0" />
    </clipPath>
    <clipPath
       clipPathUnits="userSpaceOnUse"
       id="clipPath5766">
      <path
         d="M 728.735,503.471 H 744.63 V 482.205 H 728.735 Z"
         id="path5764"
         inkscape:connector-curvature="0" />
    </clipPath>
    <clipPath
       clipPathUnits="userSpaceOnUse"
       id="clipPath5794">
      <path
         d="M 613.181,624.211 H 728.505 V 456.19 H 613.181 Z"
         id="path5792"
         inkscape:connector-curvature="0" />
    </clipPath>
    <clipPath
       clipPathUnits="userSpaceOnUse"
       id="clipPath5810">
      <path
         d="M 605.902,630.632 H 735.784 V 435.929 H 605.902 Z"
         id="path5808"
         inkscape:connector-curvature="0" />
    </clipPath>
    <clipPath
       clipPathUnits="userSpaceOnUse"
       id="clipPath5826">
      <path
         d="m 627.257,630.632 h 24.681 V 477.231 h -24.681 z"
         id="path5824"
         inkscape:connector-curvature="0" />
    </clipPath>
    <clipPath
       clipPathUnits="userSpaceOnUse"
       id="clipPath5864">
      <path
         d="M 73.8326,130.563 H 181.718 V 108.844 H 73.8326 Z"
         id="path5862"
         inkscape:connector-curvature="0" />
    </clipPath>
    <clipPath
       clipPathUnits="userSpaceOnUse"
       id="clipPath5892">
      <path
         d="M 91.5965,332.417 H 178.702 V 133.055 H 91.5965 Z"
         id="path5890"
         inkscape:connector-curvature="0" />
    </clipPath>
    <clipPath
       clipPathUnits="userSpaceOnUse"
       id="clipPath5908">
      <path
         d="M 86.3338,333.705 H 181.718 V 112.235 H 86.3338 Z"
         id="path5906"
         inkscape:connector-curvature="0" />
    </clipPath>
    <clipPath
       clipPathUnits="userSpaceOnUse"
       id="clipPath5924">
      <path
         d="M 86.0099,338.678 H 115.654 V 155.327 H 86.0099 Z"
         id="path5922"
         inkscape:connector-curvature="0" />
    </clipPath>
    <clipPath
       clipPathUnits="userSpaceOnUse"
       id="clipPath5958">
      <path
         d="M 228.432,142.636 H 386.1 V 108.844 H 228.432 Z"
         id="path5956"
         inkscape:connector-curvature="0" />
    </clipPath>
    <clipPath
       clipPathUnits="userSpaceOnUse"
       id="clipPath5978">
      <path
         d="m 363.748,286.702 h 8.856 v -17.091 h -8.856 z"
         id="path5976"
         inkscape:connector-curvature="0" />
    </clipPath>
    <clipPath
       clipPathUnits="userSpaceOnUse"
       id="clipPath5994">
      <path
         d="m 363.887,182.829 h 15.895 v -21.266 h -15.895 z"
         id="path5992"
         inkscape:connector-curvature="0" />
    </clipPath>
    <clipPath
       clipPathUnits="userSpaceOnUse"
       id="clipPath6022">
      <path
         d="M 248.333,303.569 H 363.658 V 135.548 H 248.333 Z"
         id="path6020"
         inkscape:connector-curvature="0" />
    </clipPath>
    <clipPath
       clipPathUnits="userSpaceOnUse"
       id="clipPath6038">
      <path
         d="M 241.054,309.99 H 370.937 V 115.287 H 241.054 Z"
         id="path6036"
         inkscape:connector-curvature="0" />
    </clipPath>
    <clipPath
       clipPathUnits="userSpaceOnUse"
       id="clipPath6054">
      <path
         d="m 262.409,309.99 h 24.682 v -153.4 h -24.682 z"
         id="path6052"
         inkscape:connector-curvature="0" />
    </clipPath>
    <clipPath
       clipPathUnits="userSpaceOnUse"
       id="clipPath5620">
      <path
         d="M 0,800 H 800 V 0 H 0 Z"
         id="path5618"
         inkscape:connector-curvature="0" />
    </clipPath>
    <clipPath
       clipPathUnits="userSpaceOnUse"
       id="clipPath5636">
      <path
         d="M 438.086,133.055 H 545.971 V 111.337 H 438.086 Z"
         id="path5634"
         inkscape:connector-curvature="0" />
    </clipPath>
    <clipPath
       clipPathUnits="userSpaceOnUse"
       id="clipPath5664">
      <path
         d="m 456.928,312.197 h 86.989 V 130.563 h -86.989 z"
         id="path5662"
         inkscape:connector-curvature="0" />
    </clipPath>
    <clipPath
       clipPathUnits="userSpaceOnUse"
       id="clipPath5680">
      <path
         d="m 448.075,315.208 h 44.548 V 138.041 h -44.548 z"
         id="path5678"
         inkscape:connector-curvature="0" />
    </clipPath>
    <clipPath
       clipPathUnits="userSpaceOnUse"
       id="clipPath5696">
      <path
         d="m 451.437,315.208 h 91.044 v -199.06 h -91.044 z"
         id="path5694"
         inkscape:connector-curvature="0" />
    </clipPath>
  </defs>
  <sodipodi:namedview
     id="base"
     pagecolor="#ffffff"
     bordercolor="#666666"
     borderopacity="1.0"
     inkscape:pageopacity="0.0"
     inkscape:pageshadow="2"
     inkscape:zoom="2.0625"
     inkscape:cx="200"
     inkscape:cy="200"
     inkscape:document-units="mm"
     inkscape:current-layer="layer1"
     showgrid="false"
     units="px"
     inkscape:window-width="1920"
     inkscape:window-height="1016"
     inkscape:window-x="0"
     inkscape:window-y="27"
     inkscape:window-maximized="1" />
  <metadata
     id="metadata6997">
    <rdf:RDF>
      <cc:Work
         rdf:about="">
        <dc:format>image/svg+xml</dc:format>
        <dc:type
           rdf:resource="http://purl.org/dc/dcmitype/StillImage" />
        <dc:title></dc:title>
      </cc:Work>
    </rdf:RDF>
  </metadata>
  <g
     inkscape:label="Layer 1"
     inkscape:groupmode="layer"
     id="layer1"
     transform="translate(0,-191.16665)">
    <g
       transform="matrix(0.35277777,0,0,-0.35277777,-121.41845,326.07537)"
       id="g12291">
      <g
         id="g5614">
        <g
           clip-path="url(#clipPath5620)"
           id="g5616">
          <g
             transform="translate(445.3784,309.2837)"
             id="g5622">
            <path
               inkscape:connector-curvature="0"
               id="path5624"
               style="fill:#fffaf2;fill-opacity:1;fill-rule:nonzero;stroke:none"
               d="m 0,0 c 2.99,-0.882 5.534,0.234 7.652,2.02 2.665,-1.918 5.731,-3.316 8.986,-2.784 3.911,0.64 6.256,2.833 8.727,5.283 3.957,-3.628 6.288,-8.044 12.821,-8.878 6.102,-0.78 15.137,-0.021 18.647,6.124 3.187,5.579 3.016,12.34 -0.016,18.073 -2.59,4.898 -5.508,6.377 -9.427,7.172 C 50.464,40.149 32.146,53.153 22.815,35.993 21.879,34.272 21.391,32.327 20.924,30.445 20.72,29.465 20.688,28.477 20.827,27.481 20.812,27.126 20.808,26.826 20.812,26.562 16.786,25.248 12.751,24.948 9.507,21.599 7.845,19.883 7.329,19.182 6.347,16.962 5.568,15.202 4.823,16.372 2.582,15.847 -1.329,14.932 -4.065,13.761 -5.683,10.128 -6.16,9.228 -6.51,8.211 -6.661,7.026 -7.139,3.279 -2.899,0.855 0,0" />
          </g>
          <g
             transform="translate(523.7636,280.5424)"
             id="g5626">
            <path
               inkscape:connector-curvature="0"
               id="path5628"
               style="fill:#fffaf2;fill-opacity:1;fill-rule:nonzero;stroke:none"
               d="m 0,0 c 2.171,2.237 2.366,5.008 1.769,7.714 2.937,1.467 5.601,3.532 6.643,6.662 1.252,3.759 0.401,6.854 -0.62,10.182 5.052,1.816 10.046,1.826 13.822,7.223 3.527,5.039 7.056,13.392 3.248,19.356 -3.458,5.416 -9.523,8.407 -16.008,8.389 C 3.312,59.51 0.647,57.615 -1.88,54.514 c -10.202,8.831 -30.233,-1.341 -19.379,-17.58 1.089,-1.629 2.584,-2.965 4.033,-4.254 0.773,-0.636 1.633,-1.124 2.579,-1.464 0.308,-0.179 0.571,-0.322 0.807,-0.441 -0.708,-4.174 -2.319,-7.886 -0.862,-12.316 0.746,-2.269 1.127,-3.052 2.636,-4.954 1.196,-1.507 -0.186,-1.623 -0.764,-3.851 -1.008,-3.888 -1.243,-6.855 1.221,-9.976 0.575,-0.842 1.313,-1.624 2.292,-2.309 C -6.222,-4.796 -2.105,-2.169 0,0" />
          </g>
          <g
             id="g5630">
            <g
               id="g5632" />
            <g
               id="g5644">
              <g
                 style="opacity:0.05000311"
                 id="g5642"
                 clip-path="url(#clipPath5636)">
                <g
                   id="g5640"
                   transform="translate(545.9708,122.196)">
                  <path
                     inkscape:connector-curvature="0"
                     id="path5638"
                     style="fill:#333333;fill-opacity:1;fill-rule:nonzero;stroke:none"
                     d="m 0,0 c 0,-5.998 -24.151,-10.859 -53.943,-10.859 -29.791,0 -53.942,4.861 -53.942,10.859 0,5.997 24.151,10.859 53.942,10.859 C -24.151,10.859 0,5.997 0,0" />
                </g>
              </g>
            </g>
          </g>
          <g
             transform="translate(546.8021,315.2075)"
             id="g5646">
            <path
               inkscape:connector-curvature="0"
               id="path5648"
               style="fill:#f0f9ff;fill-opacity:1;fill-rule:nonzero;stroke:none"
               d="m 0,0 h -54.18 -54.179 c -1.605,-35.718 12.441,-187.02 15.251,-193.04 2.809,-6.019 38.928,-6.019 38.928,-6.019 0,0 36.12,0 38.93,6.019 C -12.441,-187.02 1.605,-35.718 0,0" />
          </g>
          <g
             transform="translate(461.2338,130.5628)"
             id="g5650">
            <path
               inkscape:connector-curvature="0"
               id="path5652"
               style="fill:#7a0404;fill-opacity:1;fill-rule:nonzero;stroke:none"
               d="m 0,0 h 62.778 c 1.786,13.058 10.846,42.138 13.906,78.24 4.107,48.446 6.295,86.509 5.967,103.395 H -19.873 c -0.328,-16.886 1.86,-54.949 5.966,-103.395 C -10.846,42.138 -1.786,13.058 0,0" />
          </g>
          <g
             transform="translate(542.9579,279.5101)"
             id="g5654">
            <path
               inkscape:connector-curvature="0"
               id="path5656"
               style="fill:#fff6e6;fill-opacity:1;fill-rule:nonzero;stroke:none"
               d="m 0,0 c 0.742,14.237 1.068,25.425 0.927,32.687 h -102.524 c -0.141,-7.262 0.184,-18.45 0.926,-32.687 z" />
          </g>
          <g
             id="g5658">
            <g
               id="g5660" />
            <g
               id="g5672">
              <g
                 style="opacity:0.30000299"
                 id="g5670"
                 clip-path="url(#clipPath5664)">
                <g
                   id="g5668"
                   transform="translate(543.8845,312.1973)">
                  <path
                     inkscape:connector-curvature="0"
                     id="path5666"
                     style="fill:#7a0404;fill-opacity:1;fill-rule:nonzero;stroke:none"
                     d="m 0,0 h -14.539 v -127.2 c 0,-24.089 -20.101,-44.19 -44.189,-44.19 -10.657,0 -20.528,3.939 -28.228,10.411 1.983,-8.777 3.644,-15.818 4.305,-20.656 h 62.778 c 1.786,13.058 10.846,42.139 13.907,78.24 C -1.86,-54.948 0.328,-16.886 0,0" />
                </g>
              </g>
            </g>
          </g>
          <g
             id="g5674">
            <g
               id="g5676" />
            <g
               id="g5688">
              <g
                 style="opacity:0.19999701"
                 id="g5686"
                 clip-path="url(#clipPath5680)">
                <g
                   id="g5684"
                   transform="translate(492.6226,138.0414)">
                  <path
                     inkscape:connector-curvature="0"
                     id="path5682"
                     style="fill:#f0f9ff;fill-opacity:1;fill-rule:nonzero;stroke:none"
                     d="m 0,0 -10.234,177.166 h -34.314 c 0,0 3.612,-95.295 9.03,-136.23 C -30.1,0 0,0 0,0" />
                </g>
              </g>
            </g>
          </g>
          <g
             id="g5690">
            <g
               id="g5692" />
            <g
               id="g5704">
              <g
                 id="g5702"
                 clip-path="url(#clipPath5696)">
                <g
                   id="g5700"
                   transform="translate(542.3594,315.2075)">
                  <path
                     inkscape:connector-curvature="0"
                     id="path5698"
                     style="fill:#f2f2f2;fill-opacity:1;fill-rule:nonzero;stroke:none"
                     d="m 0,0 h -4.335 c 2.379,-17.336 -11.967,-153.086 -19.782,-170.574 -4.502,-10.071 -15.172,-17.42 -25.179,-20.307 -10.874,-3.138 -22.734,-1.524 -32.464,4.454 -3.391,2.084 -6.469,4.665 -9.162,7.624 0.94,-8.052 1.699,-13.22 2.151,-14.237 2.679,-6.019 37.116,-6.019 37.116,-6.019 0,0 34.436,0 37.115,6.019 C -11.862,-187.02 1.531,-35.718 0,0" />
                </g>
              </g>
            </g>
          </g>
        </g>
      </g>
    </g>
  </g>
</svg>
