<?xml version="1.0" encoding="UTF-8" standalone="no"?>
<svg
   xmlns:dc="http://purl.org/dc/elements/1.1/"
   xmlns:cc="http://creativecommons.org/ns#"
   xmlns:rdf="http://www.w3.org/1999/02/22-rdf-syntax-ns#"
   xmlns:svg="http://www.w3.org/2000/svg"
   xmlns="http://www.w3.org/2000/svg"
   id="svg7000"
   version="1.1"
   viewBox="0 0 105.83333 105.83334"
   height="400"
   width="400">
  <defs
     id="defs6994">
    <clipPath
       id="clipPath6366"
       clipPathUnits="userSpaceOnUse">
      <path
         id="path6364"
         d="M 0,800 H 800 V 0 H 0 Z" />
    </clipPath>
    <clipPath
       id="clipPath6344"
       clipPathUnits="userSpaceOnUse">
      <path
         id="path6342"
         d="m 628.752,335.17 h 25.953 V 206.897 h -25.953 z" />
    </clipPath>
    <clipPath
       id="clipPath6328"
       clipPathUnits="userSpaceOnUse">
      <path
         id="path6326"
         d="M 628.752,311.379 H 734.84 V 112.985 H 628.752 Z" />
    </clipPath>
    <clipPath
       id="clipPath6312"
       clipPathUnits="userSpaceOnUse">
      <path
         id="path6310"
         d="M 625.591,330.89 H 731.825 V 176.261 H 625.591 Z" />
    </clipPath>
    <clipPath
       id="clipPath6284"
       clipPathUnits="userSpaceOnUse">
      <path
         id="path6282"
         d="M 621.104,130.563 H 728.989 V 108.844 H 621.104 Z" />
    </clipPath>
    <clipPath
       id="clipPath6242"
       clipPathUnits="userSpaceOnUse">
      <path
         id="path6240"
         d="M 86.5897,635.849 H 177.633 V 436.79 H 86.5897 Z" />
    </clipPath>
    <clipPath
       id="clipPath6226"
       clipPathUnits="userSpaceOnUse">
      <path
         id="path6224"
         d="M 83.2275,635.849 H 127.775 V 458.683 H 83.2275 Z" />
    </clipPath>
    <clipPath
       id="clipPath6210"
       clipPathUnits="userSpaceOnUse">
      <path
         id="path6208"
         d="M 92.0805,632.839 H 179.069 V 451.205 H 92.0805 Z" />
    </clipPath>
    <clipPath
       id="clipPath6182"
       clipPathUnits="userSpaceOnUse">
      <path
         id="path6180"
         d="M 73.8326,450.697 H 181.718 V 428.978 H 73.8326 Z" />
    </clipPath>
    <clipPath
       id="clipPath5596"
       clipPathUnits="userSpaceOnUse">
      <path
         id="path5594"
         d="m 268.434,659.32 h 29.644 V 475.969 h -29.644 z" />
    </clipPath>
    <clipPath
       id="clipPath5580"
       clipPathUnits="userSpaceOnUse">
      <path
         id="path5578"
         d="m 268.758,654.347 h 95.383 v -221.47 h -95.383 z" />
    </clipPath>
    <clipPath
       id="clipPath5564"
       clipPathUnits="userSpaceOnUse">
      <path
         id="path5562"
         d="m 274.02,653.059 h 87.106 V 453.697 H 274.02 Z" />
    </clipPath>
    <clipPath
       id="clipPath5536"
       clipPathUnits="userSpaceOnUse">
      <path
         id="path5534"
         d="M 256.256,450.697 H 364.141 V 428.978 H 256.256 Z" />
    </clipPath>
    <clipPath
       id="clipPath6088"
       clipPathUnits="userSpaceOnUse">
      <path
         id="path6086"
         d="M 438.68,450.697 H 546.565 V 428.978 H 438.68 Z" />
    </clipPath>
    <clipPath
       id="clipPath6116"
       clipPathUnits="userSpaceOnUse">
      <path
         id="path6114"
         d="M 443.167,651.532 H 549.401 V 496.903 H 443.167 Z" />
    </clipPath>
    <clipPath
       id="clipPath6132"
       clipPathUnits="userSpaceOnUse">
      <path
         id="path6130"
         d="M 446.329,632.021 H 552.416 V 433.627 H 446.329 Z" />
    </clipPath>
    <clipPath
       id="clipPath6148"
       clipPathUnits="userSpaceOnUse">
      <path
         id="path6146"
         d="m 446.329,655.812 h 25.953 V 527.539 h -25.953 z" />
    </clipPath>
  </defs>
  <metadata
     id="metadata6997">
    <rdf:RDF>
      <cc:Work
         rdf:about="">
        <dc:format>image/svg+xml</dc:format>
        <dc:type
           rdf:resource="http://purl.org/dc/dcmitype/StillImage" />
        <dc:title></dc:title>
      </cc:Work>
    </rdf:RDF>
  </metadata>
  <g
     transform="translate(0,-191.16665)"
     id="layer1">
    <g
       id="g12045"
       transform="matrix(0.35277777,0,0,-0.35277777,-120.8697,437.65591)">
      <g
         id="g6082">
        <g
           id="g6084" />
        <g
           id="g6096">
          <g
             clip-path="url(#clipPath6088)"
             id="g6094"
             style="opacity:0.05000311">
            <g
               transform="translate(546.5651,439.8379)"
               id="g6092">
              <path
                 d="m 0,0 c 0,-5.998 -24.151,-10.859 -53.943,-10.859 -29.791,0 -53.942,4.861 -53.942,10.859 0,5.997 24.151,10.859 53.942,10.859 C -24.151,10.859 0,5.997 0,0"
                 style="fill:#333333;fill-opacity:1;fill-rule:nonzero;stroke:none"
                 id="path6090" />
            </g>
          </g>
        </g>
      </g>
      <g
         id="g6098"
         transform="translate(550.4141,548.3596)">
        <path
           d="m 0,0 c 9.231,40.534 -16.454,105.55 -16.454,105.55 0,0 -14.85,2.006 -41.338,2.006 -26.487,0 -41.336,-2.006 -41.336,-2.006 0,0 -25.685,-65.016 -16.455,-105.55 9.231,-40.534 45.35,-53.778 45.35,-53.778 0,0 3.612,-16.856 3.612,-33.712 0,-16.856 -40.133,-15.25 -37.323,-20.869 2.809,-5.619 46.152,-6.374 46.152,-6.374 0,0 43.344,0.755 46.153,6.374 2.81,5.619 -37.323,4.013 -37.323,20.869 0,16.856 3.612,33.712 3.612,33.712 0,0 36.119,13.244 45.35,53.778"
           style="fill:#f0f9ff;fill-opacity:1;fill-rule:nonzero;stroke:none"
           id="path6100" />
      </g>
      <g
         id="g6102"
         transform="translate(462.7033,508.7402)">
        <path
           d="m 0,0 c 9.69,-8.019 18.431,-11.301 18.514,-11.333 l 1.378,-0.504 h 20.055 l 1.377,0.504 c 0.346,0.127 34.686,13.127 43.452,51.621 8.107,35.6 -11.816,91.738 -15.684,102.105 -4.65,0.507 -18.335,1.773 -39.173,1.773 -20.838,0 -34.523,-1.266 -39.173,-1.773 C -13.123,132.03 -33.049,75.91 -24.937,40.288 -21.279,24.22 -12.888,10.665 0,0"
           style="fill:#f0b617;fill-opacity:1;fill-rule:nonzero;stroke:none"
           id="path6104" />
      </g>
      <g
         id="g6106"
         transform="translate(540.7664,623.0278)">
        <path
           d="m 0,0 c -3.696,13.565 -7.498,24.157 -8.971,28.105 -4.65,0.508 -18.335,1.773 -39.173,1.773 -20.838,0 -34.523,-1.265 -39.173,-1.773 -1.474,-3.948 -5.278,-14.539 -8.975,-28.105 0,0 9.257,7.604 48.146,7.604 C -9.257,7.604 0,0 0,0"
           style="fill:#fbf7ca;fill-opacity:1;fill-rule:nonzero;stroke:none"
           id="path6108" />
      </g>
      <g
         id="g6110">
        <g
           id="g6112" />
        <g
           id="g6124">
          <g
             clip-path="url(#clipPath6116)"
             id="g6122"
             style="opacity:0.30000299">
            <g
               transform="translate(531.7952,651.1331)"
               id="g6120">
              <path
                 d="m 0,0 c -0.97,0.106 -2.34,0.245 -4.08,0.398 2.487,-6.174 4.659,-12.476 6.23,-18.889 5.086,-20.759 6.809,-42.587 3.998,-63.794 -0.031,-9.746 -2.488,-18.829 -7.372,-27.25 -2.814,-3.642 -5.628,-7.285 -8.442,-10.927 -10.079,-10.08 -23.915,-15.814 -38.177,-15.814 -14.263,0 -28.098,5.734 -38.178,15.814 -0.908,0.914 -1.775,1.853 -2.607,2.811 4.52,-9.427 11.045,-17.715 19.536,-24.742 9.69,-8.019 18.431,-11.301 18.514,-11.333 l 1.378,-0.504 h 20.055 l 1.377,0.504 c 0.347,0.127 34.686,13.127 43.452,51.621 C 23.791,-66.505 3.868,-10.367 0,0"
                 style="fill:#f5c71c;fill-opacity:1;fill-rule:nonzero;stroke:none"
                 id="path6118" />
            </g>
          </g>
        </g>
      </g>
      <g
         id="g6126">
        <g
           id="g6128" />
        <g
           id="g6140">
          <g
             clip-path="url(#clipPath6132)"
             id="g6138">
            <g
               transform="translate(550.4141,548.3596)"
               id="g6136">
              <path
                 d="M 0,0 C 5.84,25.645 -2.295,61.083 -9.06,83.662 -7.693,70.634 -7.868,57.605 -8.269,44.491 -8.827,26.305 -11.34,8.68 -17.283,-8.586 c -2.685,-7.801 -6.208,-14.635 -11.904,-20.687 -4.558,-4.841 -9.844,-8.864 -14.734,-13.347 -11.604,-13.197 -7.437,-46.12 -7.894,-50.668 -0.012,-0.118 -0.028,-0.234 -0.044,-0.351 3.392,-4.635 15.076,-13.359 -6.175,-13.093 -12.908,-0.011 -25.891,-0.191 -38.535,2.299 -4.954,-1.125 -8.251,-2.175 -7.376,-3.926 2.81,-5.619 46.154,-6.374 46.154,-6.374 0,0 43.343,0.755 46.152,6.374 2.81,5.619 -37.323,4.013 -37.323,20.869 0,16.856 3.612,33.712 3.612,33.712 0,0 36.119,13.244 45.35,53.778"
                 style="fill:#f2f2f2;fill-opacity:1;fill-rule:nonzero;stroke:none"
                 id="path6134" />
            </g>
          </g>
        </g>
      </g>
      <g
         id="g6142">
        <g
           id="g6144" />
        <g
           id="g6156">
          <g
             clip-path="url(#clipPath6148)"
             id="g6154"
             style="opacity:0.19999701">
            <g
               transform="translate(453.1683,539.1752)"
               id="g6152">
              <path
                 d="m 0,0 c 3.461,-3.994 7.165,-7.764 11.12,-11.266 0.189,-0.126 0.381,-0.246 0.57,-0.37 -0.196,1.59 -0.389,3.182 -0.576,4.775 -1.852,15.747 -2.313,31.715 -0.707,47.504 1.746,17.15 4.667,34.122 7.167,51.161 0.87,7.555 1.457,15.135 1.486,22.75 0.003,0.698 0.024,1.391 0.053,2.083 C 12.458,116.5 6.796,116.246 2.199,115.965 1.639,113.167 1.11,110.353 0.581,107.521 -1.013,98.985 -2.46,90.425 -3.73,81.836 -6.63,57.74 -7.891,33.335 -5.807,9.146 -3.991,6.026 -2.055,2.974 0,0"
                 style="fill:#f0f9ff;fill-opacity:1;fill-rule:nonzero;stroke:none"
                 id="path6150" />
            </g>
          </g>
        </g>
      </g>
      <g
         id="g6172"
         transform="translate(532.6922,659.6074)">
        <path
           d="m 0,0 c -4.881,6.108 -16.047,7.425 -23.264,8.286 -10.284,1.225 -21.362,0.18 -31.593,-1.048 -9.605,-1.153 -17.509,-1.843 -25.231,-8.166 -0.976,-0.799 -1.372,-1.736 -1.371,-2.654 -1.006,-1.727 -0.909,-3.717 1.561,-5.63 5.589,-4.329 12.847,-7.799 20.035,-8.821 6.879,-3.432 7.855,-12.547 5.524,-20.027 -0.592,-1.901 -1.621,-5.376 -0.554,-7.336 0.988,-1.815 3.485,-3.164 5.596,-2.58 6.529,1.807 4.031,12.242 3.104,16.914 -0.668,3.375 -2.547,9.417 2.536,10.054 1.941,0.243 4.018,-0.338 5.959,-0.437 1.378,-0.071 2.709,0.157 4.009,0.53 1.13,0.045 2.276,0.158 3.446,0.366 4.679,0.834 8.64,4.717 13.415,5.893 3.886,0.958 7.969,1.3 11.59,3.14 C -1.088,-9.409 3.824,-4.785 0,0"
           style="fill:#fffaf2;fill-opacity:1;fill-rule:nonzero;stroke:none"
           id="path6174" />
      </g>
    </g>
  </g>
</svg>
